<svg width="24" height="24" viewBox="0 0 24 24" fill="none" xmlns="http://www.w3.org/2000/svg">
<path d="M7.5 7.67001V6.70001C7.5 4.45001 9.31 2.24001 11.56 2.03001C14.24 1.77001 16.5 3.88001 16.5 6.51001V7.89001" stroke="white" stroke-width="1.5" stroke-miterlimit="10" stroke-linecap="round" stroke-linejoin="round"/>
<path d="M15.9809 17.9339C15.9805 17.9369 15.9801 17.9399 15.9798 17.943C15.7531 17.9744 15.434 18 15 18H9.00001C8.56606 18 8.24694 17.9744 8.02025 17.943C8.01988 17.9399 8.0195 17.9369 8.01912 17.9339L7.2814 12.0321C7.46958 12.0133 7.70656 12 8.00001 12H16C16.2935 12 16.5304 12.0133 16.7186 12.0321L15.9809 17.9339Z" stroke="white" stroke-width="8" stroke-miterlimit="10" stroke-linecap="round" stroke-linejoin="round"/>
<path d="M15.4955 12H15.5045" stroke="#915DFF" stroke-width="2" stroke-linecap="round" stroke-linejoin="round"/>
<path d="M8.49451 12H8.50349" stroke="#915DFF" stroke-width="2" stroke-linecap="round" stroke-linejoin="round"/>
</svg>
