<svg width="24" height="24" viewBox="0 0 24 24" fill="none" xmlns="http://www.w3.org/2000/svg">
<path d="M14.5 7C14.5 8.38071 13.3807 9.5 12 9.5C10.6193 9.5 9.5 8.38071 9.5 7C9.5 5.61929 10.6193 4.5 12 4.5C13.3807 4.5 14.5 5.61929 14.5 7Z" stroke="white" stroke-width="5" stroke-linecap="round" stroke-linejoin="round"/>
<mask id="path-2-inside-1_443_953" fill="white">
<path d="M20.59 22C20.59 18.13 16.74 15 12 15C7.26 15 3.41 18.13 3.41 22"/>
</mask>
<path d="M13.59 22C13.59 25.866 16.724 29 20.59 29C24.456 29 27.59 25.866 27.59 22H13.59ZM-3.59 22C-3.59 25.866 -0.45599 29 3.41 29C7.276 29 10.41 25.866 10.41 22H-3.59ZM27.59 22C27.59 12.9887 19.1935 8 12 8V22C12.8601 22 13.4218 22.2889 13.6524 22.4767C13.759 22.5635 13.7479 22.5879 13.7021 22.4997C13.6492 22.3978 13.59 22.2181 13.59 22H27.59ZM12 8C4.8065 8 -3.59 12.9887 -3.59 22H10.41C10.41 22.2181 10.3508 22.3978 10.2979 22.4997C10.2521 22.5879 10.241 22.5635 10.3476 22.4767C10.5782 22.2889 11.1399 22 12 22V8Z" fill="white" mask="url(#path-2-inside-1_443_953)"/>
</svg>
