<svg width="18" height="18" viewBox="0 0 18 18" fill="none" xmlns="http://www.w3.org/2000/svg">
<path d="M9.00002 15.7499C8.51627 15.3209 7.96952 14.8746 7.39127 14.3999H7.38377C5.34752 12.7349 3.03977 10.8509 2.02052 8.59337C1.68566 7.87466 1.5082 7.09271 1.50001 6.29987C1.49777 5.21198 1.9341 4.16911 2.71037 3.40694C3.48665 2.64478 4.53736 2.22766 5.62502 2.24987C6.51049 2.25127 7.37689 2.50718 8.12102 2.98712C8.44799 3.19934 8.74383 3.45606 9.00002 3.74987C9.25763 3.45721 9.55355 3.20065 9.87977 2.98712C10.6236 2.50708 11.4898 2.25116 12.375 2.24987C13.4627 2.22766 14.5134 2.64478 15.2897 3.40694C16.0659 4.16911 16.5023 5.21198 16.5 6.29987C16.4924 7.09398 16.3149 7.87726 15.9795 8.59712C14.9603 10.8546 12.6533 12.7379 10.617 14.3999L10.6095 14.4059C10.0305 14.8776 9.48452 15.3239 9.00077 15.7559L9.00002 15.7499ZM5.62502 3.74987C4.9264 3.74112 4.25257 4.0085 3.75002 4.49387C3.26581 4.96949 2.99518 5.62115 2.99995 6.29987C3.00851 6.87774 3.13939 7.44726 3.38402 7.97087C3.86515 8.9449 4.51435 9.82641 5.30177 10.5749C6.04502 11.3249 6.90002 12.0509 7.63952 12.6614C7.84427 12.8301 8.05277 13.0004 8.26127 13.1706L8.39252 13.2779C8.59277 13.4414 8.79977 13.6109 9.00002 13.7774L9.00977 13.7684L9.01427 13.7646H9.01877L9.02552 13.7594H9.02927H9.03302L9.04652 13.7481L9.07727 13.7234L9.08252 13.7189L9.09077 13.7129H9.09527L9.10202 13.7069L9.60002 13.2981L9.73052 13.1909C9.94127 13.0191 10.1498 12.8489 10.3545 12.6801C11.094 12.0696 11.9498 11.3444 12.693 10.5906C13.4805 9.84254 14.1298 8.96125 14.6108 7.98737C14.8598 7.45922 14.9926 6.88375 15 6.29987C15.0031 5.62325 14.7327 4.97409 14.25 4.49987C13.7484 4.01231 13.0745 3.74273 12.375 3.74987C11.5215 3.74261 10.7055 4.10039 10.1325 4.73312L9.00002 6.03812L7.86752 4.73312C7.29456 4.10039 6.47857 3.74261 5.62502 3.74987Z" fill="#47258F"/>
</svg>
