<svg width="14" height="14" viewBox="0 0 14 14" fill="none" xmlns="http://www.w3.org/2000/svg">
<path d="M7.00002 12.8332C3.77836 12.8332 1.16669 10.2215 1.16669 6.99984C1.16669 3.77818 3.77836 1.1665 7.00002 1.1665C10.2217 1.1665 12.8334 3.77818 12.8334 6.99984C12.8298 10.22 10.2202 12.8296 7.00002 12.8332ZM2.33335 7.10017C2.36095 9.66756 4.45733 11.7304 7.02483 11.7167C9.59234 11.7028 11.6664 9.61754 11.6664 7.05C11.6664 4.48247 9.59234 2.39721 7.02483 2.38334C4.45733 2.3696 2.36095 4.43245 2.33335 6.99984V7.10017ZM7.58335 9.9165H6.41669V7.58317H4.08335V6.4165H6.41669V4.08317H7.58335V6.4165H9.91669V7.58317H7.58335V9.9165Z" fill="#47258F"/>
</svg>
