<svg width="14" height="14" viewBox="0 0 14 14" fill="none" xmlns="http://www.w3.org/2000/svg">
<path d="M10.2083 12.8335C9.57711 12.8408 8.97886 12.5523 8.59145 12.054C8.20404 11.5556 8.07211 10.9047 8.23489 10.2948L4.58322 8.20763C3.95222 8.78573 3.02729 8.90809 2.26767 8.51394C1.50806 8.11979 1.07557 7.2931 1.18494 6.44433C1.29431 5.59557 1.92225 4.90552 2.75697 4.71681C3.59169 4.52811 4.45539 4.88095 4.91922 5.60013L8.23431 3.70488C8.19141 3.54282 8.16869 3.37609 8.16664 3.20846C8.15828 2.23238 8.83619 1.38446 9.79017 1.17778C10.7442 0.971089 11.7122 1.4624 12.1086 2.35441C12.505 3.24643 12.2208 4.29418 11.428 4.86367C10.6353 5.43317 9.55162 5.36801 8.83281 4.70763L5.24472 6.75805C5.24117 6.90932 5.22003 7.05966 5.18172 7.20605L8.83281 9.29263C9.50496 8.67578 10.5051 8.58056 11.2816 9.05949C12.0581 9.53841 12.4218 10.4749 12.1723 11.3524C11.9227 12.2299 11.1206 12.8348 10.2083 12.8335ZM10.2083 9.9168C9.72506 9.9168 9.33331 10.3085 9.33331 10.7918C9.33331 11.275 9.72506 11.6668 10.2083 11.6668C10.6916 11.6668 11.0833 11.275 11.0833 10.7918C11.0833 10.3085 10.6916 9.9168 10.2083 9.9168ZM3.20831 5.83346C2.72506 5.83346 2.33331 6.22521 2.33331 6.70846C2.33331 7.19171 2.72506 7.58346 3.20831 7.58346C3.69155 7.58346 4.08331 7.19171 4.08331 6.70846C4.08331 6.22521 3.69155 5.83346 3.20831 5.83346ZM10.2083 2.33346C9.72506 2.33346 9.33331 2.72521 9.33331 3.20846C9.33331 3.69171 9.72506 4.08346 10.2083 4.08346C10.6916 4.08346 11.0833 3.69171 11.0833 3.20846C11.0833 2.72521 10.6916 2.33346 10.2083 2.33346Z" fill="#47258F"/>
</svg>
