<svg width="18" height="18" viewBox="0 0 18 18" fill="none" xmlns="http://www.w3.org/2000/svg">
<path fill-rule="evenodd" clip-rule="evenodd" d="M1.06931 0.797164C0.746845 0.93753 0.64539 1.37645 0.872907 1.64672C1.03531 1.83958 1.09619 1.84941 2.12829 1.84941H3.06734L4.40618 7.20645L5.74506 12.5635L5.87707 12.6909C5.95113 12.7623 6.0583 12.8271 6.12118 12.8383C6.18281 12.8493 8.38867 12.854 11.023 12.8485C15.7993 12.8387 15.813 12.8384 15.9078 12.7677C16.0884 12.633 16.1448 12.523 16.1448 12.3055C16.1448 12.088 16.0884 11.9781 15.9078 11.8433C15.8131 11.7726 15.7978 11.7724 11.2455 11.7634L6.67822 11.7544L6.54964 11.2303C6.47895 10.942 6.42141 10.6947 6.42183 10.6807C6.4222 10.6667 8.53383 10.6513 11.1143 10.6463L15.806 10.6374L15.936 10.5382C16.0075 10.4837 16.0855 10.3909 16.1093 10.3319C16.1331 10.2729 16.4043 8.83637 16.7121 7.13962C17.1104 4.94363 17.2651 4.01968 17.2489 3.93331C17.2204 3.7817 17.0778 3.60883 16.9304 3.54729C16.8369 3.50826 15.7919 3.50038 10.7164 3.50038H4.61477L4.30937 2.27633C3.98257 0.966491 3.96312 0.917512 3.72477 0.804456C3.62324 0.756303 3.44263 0.748942 2.39081 0.750111C1.45737 0.751143 1.14984 0.762081 1.06931 0.797164ZM16.0505 4.64402C16.0419 4.66768 15.8362 5.78205 15.5933 7.12046L15.1517 9.55392H10.6406H6.12954L5.51795 7.10327C5.18158 5.75543 4.90678 4.64099 4.90733 4.62682C4.90785 4.61265 7.41879 4.60102 10.4872 4.60102C14.9357 4.60102 16.0629 4.60972 16.0505 4.64402ZM7.2313 13.4462C6.92039 13.5046 6.52851 13.7219 6.27216 13.9782C5.6828 14.5671 5.53936 15.4213 5.90347 16.1731C6.4773 17.358 8.06669 17.6204 8.99 16.6828C9.73598 15.9252 9.73443 14.735 8.98649 13.9801C8.53118 13.5206 7.88374 13.3236 7.2313 13.4462ZM13.2883 13.4462C12.9774 13.5046 12.5855 13.7219 12.3292 13.9782C11.7398 14.5671 11.5964 15.4213 11.9605 16.1731C12.5343 17.358 14.1237 17.6204 15.047 16.6828C15.793 15.9252 15.7915 14.735 15.0435 13.9801C14.5882 13.5206 13.9408 13.3236 13.2883 13.4462ZM7.88119 14.5486C8.07023 14.6045 8.35532 14.8894 8.41118 15.0783C8.50651 15.4008 8.4393 15.6579 8.19609 15.901C8.01785 16.0791 7.84354 16.1578 7.62707 16.1578C7.20063 16.1578 6.80111 15.7585 6.80111 15.3323C6.80111 15.1161 6.87985 14.9417 7.05805 14.7632C7.29947 14.5214 7.55951 14.4536 7.88119 14.5486ZM13.9382 14.5486C14.234 14.636 14.51 15.0143 14.51 15.3323C14.51 15.7585 14.1105 16.1578 13.6841 16.1578C13.4676 16.1578 13.2933 16.0791 13.1151 15.901C12.7669 15.553 12.7669 15.112 13.1151 14.7632C13.3565 14.5214 13.6165 14.4536 13.9382 14.5486Z" fill="white"/>
</svg>
