<svg width="24" height="24" viewBox="0 0 24 24" fill="none" xmlns="http://www.w3.org/2000/svg">
<g clip-path="url(#clip0_68_8769)">
<path d="M12 21C16.9706 21 21 16.9706 21 12C21 7.02944 16.9706 3 12 3C7.02944 3 3 7.02944 3 12C3 16.9706 7.02944 21 12 21Z" stroke="white" stroke-width="1.5" stroke-linecap="round" stroke-linejoin="round"/>
<path d="M15.0001 14.2506C14.5278 14.8801 13.8694 15.345 13.1182 15.5796C12.3669 15.8141 11.5609 15.8064 10.8144 15.5574C10.0678 15.3085 9.41843 14.831 8.95829 14.1925C8.49816 13.5541 8.25055 12.787 8.25055 12C8.25054 11.213 8.49814 10.446 8.95827 9.80751C9.41839 9.16904 10.0677 8.69151 10.8143 8.44257C11.5609 8.19362 12.3669 8.18586 13.1181 8.4204C13.8693 8.65493 14.5277 9.11988 15.0001 9.74937" stroke="white" stroke-width="1.5" stroke-linecap="round" stroke-linejoin="round"/>
</g>
<defs>
<clipPath id="clip0_68_8769">
<rect width="24" height="24" fill="white"/>
</clipPath>
</defs>
</svg>
