<svg width="24" height="24" viewBox="0 0 24 24" fill="none" xmlns="http://www.w3.org/2000/svg">
<path d="M13 12.2V13.2H14H15.7518L15.6465 13.7H14H13V14.7V21H12V14.8V13.8H11H10V13.3H11H12V12.3V9C12 7.85228 12.8523 7 14 7H16V8H14.3C14.0459 8 13.6716 8.06421 13.3679 8.36789C13.0642 8.67157 13 9.04585 13 9.3V12.2Z" stroke="white" stroke-width="2" stroke-miterlimit="10" stroke-linecap="round"/>
<path d="M15 22H9C4 22 2 20 2 15V9C2 4 4 2 9 2H15C20 2 22 4 22 9V15C22 20 20 22 15 22Z" stroke="white" stroke-width="1.5" stroke-linecap="round" stroke-linejoin="round"/>
</svg>
