<svg width="1450" height="501" viewBox="0 0 1450 501" fill="none" xmlns="http://www.w3.org/2000/svg">
<mask id="mask0_508_10328" style="mask-type:alpha" maskUnits="userSpaceOnUse" x="0" y="0" width="1450" height="501">
<rect width="1450" height="499.948" transform="matrix(-1 0 0 1 1450 0.992432)" fill="#7C14FD"/>
</mask>
<g mask="url(#mask0_508_10328)">
<path opacity="0.4" fill-rule="evenodd" clip-rule="evenodd" d="M-27.8355 918.57C-242.271 918.57 -416.106 744.101 -416.106 528.883C-416.106 313.664 -242.271 139.195 -27.8355 139.195C186.6 139.195 360.435 313.664 360.435 528.883C360.435 744.101 186.6 918.57 -27.8355 918.57ZM-27.8354 787.141C114.278 787.141 229.484 671.515 229.484 528.883C229.484 386.25 114.278 270.624 -27.8354 270.624C-169.949 270.624 -285.155 386.25 -285.155 528.883C-285.155 671.515 -169.949 787.141 -27.8354 787.141Z" fill="url(#paint0_linear_508_10328)"/>
<path opacity="0.4" fill-rule="evenodd" clip-rule="evenodd" d="M1520.73 292.503C1274.3 292.503 1074.52 91.9991 1074.52 -155.335C1074.52 -402.67 1274.3 -603.174 1520.73 -603.174C1767.17 -603.174 1966.94 -402.67 1966.94 -155.335C1966.94 91.9991 1767.17 292.503 1520.73 292.503ZM1520.73 141.462C1684.05 141.462 1816.45 8.5813 1816.45 -155.335C1816.45 -319.251 1684.05 -452.132 1520.73 -452.132C1357.41 -452.132 1225.01 -319.251 1225.01 -155.335C1225.01 8.5813 1357.41 141.462 1520.73 141.462Z" fill="url(#paint1_linear_508_10328)"/>
</g>
<g opacity="0.3" clip-path="url(#clip0_508_10328)">
<path d="M180.743 157.952C180.743 156.725 179.75 155.731 178.523 155.731C177.298 155.731 176.305 156.725 176.305 157.952C176.305 159.179 177.298 160.176 178.523 160.176C179.75 160.176 180.743 159.179 180.743 157.952Z" fill="#E54884"/>
<path d="M275.014 270.982C275.014 269.186 273.56 267.73 271.767 267.73C269.975 267.73 268.521 269.186 268.521 270.982C268.521 272.778 269.975 274.234 271.767 274.234C273.56 274.234 275.014 272.778 275.014 270.982Z" stroke="#4BDFEA" stroke-width="4"/>
<path d="M289.673 223.254C289.673 221.458 288.219 220.002 286.427 220.002C284.634 220.002 283.18 221.458 283.18 223.254C283.18 225.05 284.634 226.506 286.427 226.506C288.219 226.506 289.673 225.05 289.673 223.254Z" stroke="#4BDFEA" stroke-width="4"/>
<path d="M316.554 246.993L320.463 245.784L316.554 244.576L315.351 240.663L314.145 244.576L310.236 245.784L314.145 246.993L315.351 250.906L316.554 246.993Z" fill="#F44D99"/>
<path d="M809.494 8.71178C808.074 7.61953 806.034 7.88577 804.94 9.30845C803.847 10.7311 804.116 12.7749 805.536 13.8671C806.956 14.9624 808.993 14.6963 810.086 13.2736C811.179 11.8509 810.914 9.80709 809.494 8.71178Z" stroke="#4BDFEA" stroke-width="4"/>
<path d="M910.975 138.607C910.004 137.86 908.611 138.041 907.863 139.014C907.118 139.986 907.298 141.382 908.269 142.131C909.241 142.878 910.633 142.697 911.382 141.724C912.127 140.751 911.947 139.356 910.975 138.607Z" fill="#E54884"/>
<path d="M974.41 180.656C972.99 179.564 970.95 179.83 969.856 181.253C968.763 182.675 969.032 184.719 970.452 185.811C971.872 186.907 973.909 186.641 975.002 185.218C976.096 183.795 975.83 181.752 974.41 180.656Z" stroke="#4BDFEA" stroke-width="4"/>
<path d="M945.58 139.919C944.16 138.824 942.123 139.09 941.03 140.515C939.936 141.938 940.202 143.979 941.625 145.074C943.045 146.169 945.082 145.903 946.176 144.481C947.269 143.055 947.003 141.014 945.58 139.919Z" stroke="#4BDFEA" stroke-width="4"/>
<path d="M980.753 133.044L982.179 129.205L978.841 131.57L975.009 130.141L977.372 133.485L975.946 137.325L979.284 134.957L983.117 136.388L980.753 133.044Z" fill="#F44D99"/>
<path d="M1328.6 219.322L1330.03 215.483L1326.69 217.848L1322.86 216.419L1325.22 219.763L1323.8 223.603L1327.13 221.234L1330.97 222.666L1328.6 219.322Z" fill="#F44D99"/>
<path d="M636.369 450.734C636.369 449.893 635.685 449.208 634.842 449.208C633.999 449.208 633.318 449.893 633.318 450.734C633.318 451.579 633.999 452.264 634.842 452.264C635.685 452.264 636.369 451.579 636.369 450.734Z" fill="#F44D99"/>
<path d="M629.809 417.269C629.809 416.416 629.116 415.721 628.264 415.721C627.412 415.721 626.722 416.416 626.722 417.269C626.722 418.123 627.412 418.814 628.264 418.814C629.116 418.814 629.809 418.123 629.809 417.269Z" fill="#FFE843"/>
<path d="M1209.02 318.576C1209.02 317.349 1208.03 316.355 1206.8 316.355C1205.58 316.355 1204.59 317.349 1204.59 318.576C1204.59 319.803 1205.58 320.8 1206.8 320.8C1208.03 320.8 1209.02 319.803 1209.02 318.576Z" fill="#E54884"/>
<path d="M1214.42 394.586C1214.42 392.79 1212.97 391.334 1211.18 391.334C1209.38 391.334 1207.93 392.79 1207.93 394.586C1207.93 396.382 1209.38 397.838 1211.18 397.838C1212.97 397.838 1214.42 396.382 1214.42 394.586Z" stroke="#4BDFEA" stroke-width="4"/>
<path d="M1239.47 357.26C1239.47 355.464 1238.01 354.008 1236.22 354.008C1234.43 354.008 1232.97 355.464 1232.97 357.26C1232.97 359.056 1234.43 360.513 1236.22 360.513C1238.01 360.513 1239.47 359.056 1239.47 357.26Z" stroke="#4BDFEA" stroke-width="4"/>
<path d="M1309.71 382.835L1313.62 381.626L1309.71 380.418L1308.51 376.505L1307.3 380.418L1303.4 381.626L1307.3 382.835L1308.51 386.748L1309.71 382.835Z" fill="#F44D99"/>
<path d="M1176.5 335.654L1183.17 333.592L1176.5 331.53L1174.44 324.848L1172.38 331.53L1165.71 333.592L1172.38 335.654L1174.44 342.336L1176.5 335.654Z" fill="#F44D99"/>
<path d="M742.892 253.944C742.892 253.053 742.172 252.331 741.283 252.331C740.394 252.331 739.673 253.053 739.673 253.944C739.673 254.834 740.394 255.556 741.283 255.556C742.172 255.556 742.892 254.834 742.892 253.944Z" fill="#E54884"/>
<path d="M85.5926 320.188C86.5393 319.65 86.8691 318.444 86.3316 317.496C85.7911 316.548 84.5878 316.217 83.6411 316.759C82.6974 317.297 82.3645 318.503 82.905 319.451C83.4425 320.399 84.6458 320.73 85.5926 320.188Z" fill="#FFE843"/>
<path d="M719.3 266.329L724.141 264.832L719.3 263.339L717.81 258.49L716.317 263.339L711.479 264.832L716.317 266.329L717.81 271.175L719.3 266.329Z" fill="#F44D99"/>
<path d="M108.837 25.1051C110.394 24.2178 110.938 22.2321 110.049 20.6717C109.163 19.1082 107.181 18.5636 105.624 19.454C104.066 20.3413 103.523 22.327 104.408 23.8874C105.294 25.4478 107.276 25.9924 108.837 25.1051Z" fill="#4BDFEA"/>
<path d="M13.8421 95.7888L20.5121 93.7267L13.8421 91.6646L11.7837 84.9826L9.72535 91.6646L3.05542 93.7267L9.72535 95.7888L11.7837 102.471L13.8421 95.7888Z" fill="#F44D99"/>
<path d="M28.9807 7.96565C28.0095 7.21914 26.6169 7.39967 25.8687 8.37258C25.1235 9.34549 25.3037 10.7406 26.2748 11.4901C27.246 12.2367 28.6386 12.0561 29.3869 11.0832C30.132 10.1103 29.9518 8.71522 28.9807 7.96565Z" fill="#E54884"/>
<path d="M525.097 76.8107C526.654 75.9234 527.198 73.9378 526.309 72.3775C525.423 70.8141 523.441 70.2695 521.884 71.1599C520.326 72.0471 519.783 74.0327 520.668 75.593C521.554 77.1534 523.536 77.6979 525.097 76.8107Z" fill="#4BDFEA"/>
<path d="M445.241 59.6712C444.27 58.9247 442.877 59.1052 442.129 60.0781C441.383 61.051 441.564 62.4461 442.535 63.1957C443.506 63.9422 444.899 63.7617 445.647 62.7888C446.392 61.8159 446.212 60.4207 445.241 59.6712Z" fill="#E54884"/>
<path d="M465.186 10.502C463.766 9.4067 461.729 9.67286 460.636 11.0986C459.542 12.5212 459.808 14.5619 461.231 15.6572C462.651 16.7525 464.688 16.4863 465.782 15.0636C466.875 13.6379 466.609 11.5973 465.186 10.502Z" stroke="#E1E84D" stroke-width="4"/>
<path d="M1107.95 30.9239C1107.95 29.235 1106.59 27.8673 1104.9 27.8673C1103.22 27.8673 1101.85 29.235 1101.85 30.9239C1101.85 32.6128 1103.22 33.9805 1104.9 33.9805C1106.59 33.9805 1107.95 32.6128 1107.95 30.9239Z" fill="#F44D99"/>
<path d="M1133.13 14.5342C1133.13 13.4481 1132.25 12.567 1131.16 12.567C1130.08 12.567 1129.2 13.4481 1129.2 14.5342C1129.2 15.6203 1130.08 16.5015 1131.16 16.5015C1132.25 16.5015 1133.13 15.6203 1133.13 14.5342Z" fill="#FFE843"/>
<path d="M1167.81 18.686C1167.81 17.5998 1166.93 16.7186 1165.85 16.7186C1164.76 16.7186 1163.88 17.5998 1163.88 18.686C1163.88 19.7722 1164.76 20.6533 1165.85 20.6533C1166.93 20.6533 1167.81 19.7722 1167.81 18.686Z" fill="#FFE843"/>
<path d="M1137.82 119.084L1141.86 117.836L1137.82 116.587L1136.57 112.533L1135.32 116.587L1131.28 117.836L1135.32 119.084L1136.57 123.138L1137.82 119.084Z" fill="#FFE843"/>
<path d="M86.9151 481.483C86.3013 481.008 85.4187 481.125 84.9483 481.74C84.475 482.355 84.591 483.236 85.2049 483.71C85.8187 484.181 86.6983 484.068 87.1716 483.453C87.642 482.838 87.529 481.957 86.9151 481.483Z" fill="#E54884"/>
<path d="M108.785 482.312C107.887 481.62 106.598 481.789 105.908 482.688C105.218 483.588 105.386 484.879 106.284 485.57C107.181 486.262 108.467 486.093 109.16 485.194C109.851 484.294 109.683 483.003 108.785 482.312Z" stroke="#4BDFEA" stroke-width="2.528"/>
<path d="M131.012 477.967L131.912 475.541L129.805 477.037L127.38 476.132L128.877 478.246L127.973 480.672L130.083 479.176L132.505 480.081L131.012 477.967Z" fill="#F44D99"/>
<path d="M413.418 190.119C413.418 188.85 412.392 187.822 411.128 187.822C409.86 187.822 408.837 188.85 408.837 190.119C408.837 191.386 409.86 192.414 411.128 192.414C412.392 192.414 413.418 191.386 413.418 190.119Z" stroke="#4BDFEA" stroke-width="2.824"/>
<path d="M304.17 427.556C305.233 427.418 305.981 426.442 305.841 425.378C305.703 424.313 304.729 423.563 303.666 423.701C302.604 423.842 301.855 424.818 301.996 425.879C302.133 426.944 303.108 427.694 304.17 427.556Z" fill="#E54884"/>
<path d="M238.989 440.849C240.543 440.647 241.637 439.218 241.435 437.661C241.233 436.104 239.807 435.005 238.253 435.21C236.698 435.412 235.602 436.841 235.807 438.398C236.008 439.956 237.434 441.051 238.989 440.849Z" stroke="#4BDFEA" stroke-width="3.498"/>
<path d="M281.959 448.183C283.513 447.978 284.609 446.552 284.408 444.995C284.203 443.438 282.78 442.339 281.226 442.541C279.671 442.746 278.575 444.172 278.776 445.729C278.981 447.287 280.404 448.385 281.959 448.183Z" stroke="#4BDFEA" stroke-width="3.498"/>
<path d="M264.456 474.223L265.943 477.481L266.545 473.95L269.798 472.457L266.273 471.855L264.786 468.596L264.181 472.127L260.929 473.617L264.456 474.223Z" fill="#F44D99"/>
<path d="M398.289 282.948C398.002 284 398.618 285.086 399.669 285.374C400.72 285.665 401.804 285.047 402.091 283.994C402.381 282.942 401.764 281.856 400.713 281.568C399.663 281.277 398.579 281.895 398.289 282.948Z" fill="#FFE843"/>
<path d="M509.393 349.395C510.162 349.297 510.703 348.59 510.602 347.822C510.501 347.051 509.799 346.509 509.032 346.61C508.263 346.711 507.722 347.415 507.823 348.186C507.924 348.954 508.626 349.496 509.393 349.395Z" fill="#E54884"/>
<path d="M462.288 359.001C463.412 358.854 464.203 357.823 464.056 356.697C463.91 355.571 462.881 354.779 461.757 354.926C460.636 355.073 459.842 356.104 459.988 357.23C460.135 358.355 461.167 359.148 462.288 359.001Z" stroke="#4BDFEA" stroke-width="2.528"/>
<path d="M493.344 364.3C494.468 364.153 495.259 363.122 495.113 361.997C494.966 360.871 493.937 360.078 492.813 360.225C491.689 360.372 490.898 361.403 491.045 362.529C491.191 363.655 492.22 364.447 493.344 364.3Z" stroke="#4BDFEA" stroke-width="2.528"/>
<path d="M480.695 383.119L481.77 385.475L482.203 382.923L484.555 381.846L482.008 381.409L480.933 379.053L480.496 381.608L478.148 382.685L480.695 383.119Z" fill="#F44D99"/>
<path d="M745.045 336.746C744.392 337.597 744.551 338.818 745.4 339.473C746.249 340.127 747.467 339.968 748.121 339.118C748.774 338.267 748.612 337.046 747.763 336.392C746.914 335.737 745.699 335.896 745.045 336.746Z" fill="#E54884"/>
<path d="M781.752 281.173C780.796 282.419 781.028 284.202 782.271 285.16C783.514 286.118 785.297 285.885 786.253 284.64C787.206 283.395 786.974 281.611 785.731 280.653C784.491 279.696 782.707 279.928 781.752 281.173Z" stroke="#4BDFEA" stroke-width="3.498"/>
<path d="M746.191 306.43C745.235 307.675 745.467 309.459 746.71 310.416C747.953 311.374 749.733 311.141 750.689 309.896C751.645 308.651 751.413 306.867 750.17 305.91C748.927 304.952 747.147 305.185 746.191 306.43Z" stroke="#4BDFEA" stroke-width="3.498"/>
<path d="M740.187 275.615L736.836 274.366L738.904 277.291L737.655 280.647L740.574 278.576L743.925 279.828L741.86 276.903L743.106 273.546L740.187 275.615Z" fill="#F44D99"/>
<path d="M802.293 329.979C802.293 328.027 800.711 326.442 798.762 326.442C796.811 326.442 795.229 328.027 795.229 329.979C795.229 331.934 796.811 333.519 798.762 333.519C800.711 333.519 802.293 331.934 802.293 329.979Z" fill="#F44D99"/>
<path d="M831.437 311.004C831.437 309.746 830.42 308.728 829.165 308.728C827.91 308.728 826.89 309.746 826.89 311.004C826.89 312.264 827.91 313.283 829.165 313.283C830.42 313.283 831.437 312.264 831.437 311.004Z" fill="#FFE843"/>
<path d="M871.591 315.81C871.591 314.553 870.574 313.534 869.319 313.534C868.064 313.534 867.044 314.553 867.044 315.81C867.044 317.071 868.064 318.089 869.319 318.089C870.574 318.089 871.591 317.071 871.591 315.81Z" fill="#FFE843"/>
<path d="M1449.95 8.51292C1449.95 7.63481 1449.24 6.92194 1448.37 6.92194C1447.49 6.92194 1446.78 7.63481 1446.78 8.51292C1446.78 9.38796 1447.49 10.1008 1448.37 10.1008C1449.24 10.1008 1449.95 9.38796 1449.95 8.51292Z" fill="#F44D99"/>
<path d="M640.632 244.19C640.632 242.159 638.986 240.513 636.958 240.513C634.927 240.513 633.284 242.159 633.284 244.19C633.284 246.225 634.927 247.871 636.958 247.871C638.986 247.871 640.632 246.225 640.632 244.19Z" fill="#F44D99"/>
<path d="M375.625 199.977C375.625 198.671 374.565 197.609 373.258 197.609C371.954 197.609 370.894 198.671 370.894 199.977C370.894 201.286 371.954 202.348 373.258 202.348C374.565 202.348 375.625 201.286 375.625 199.977Z" fill="#FFE843"/>
<path d="M711.412 228.804C711.412 227.856 710.642 227.085 709.696 227.085C708.749 227.085 707.982 227.856 707.982 228.804C707.982 229.752 708.749 230.523 709.696 230.523C710.642 230.523 711.412 229.752 711.412 228.804Z" fill="#FFE843"/>
<path d="M676.593 350.352L681.464 348.847L676.593 347.344L675.09 342.465L673.591 347.344L668.72 348.847L673.591 350.352L675.09 355.232L676.593 350.352Z" fill="#FFE843"/>
<path d="M913.626 332.114C914.255 332.114 914.765 331.603 914.765 330.973C914.765 330.343 914.255 329.829 913.626 329.829C912.997 329.829 912.487 330.343 912.487 330.973C912.487 331.603 912.997 332.114 913.626 332.114Z" fill="#FFE843"/>
<path d="M1034.07 415.81C1034.73 415.81 1035.26 415.278 1035.26 414.62C1035.26 413.962 1034.73 413.43 1034.07 413.43C1033.42 413.43 1032.88 413.962 1032.88 414.62C1032.88 415.278 1033.42 415.81 1034.07 415.81Z" fill="#E54884"/>
<path d="M1024.94 398.349L1026.04 401.932L1027.14 398.349L1030.72 397.245L1027.14 396.14L1026.04 392.561L1024.94 396.14L1021.37 397.245L1024.94 398.349Z" fill="#F44D99"/>
<path d="M1041.26 340.124C1042.76 340.124 1043.98 338.906 1043.98 337.407C1043.98 335.905 1042.76 334.687 1041.26 334.687C1039.77 334.687 1038.55 335.905 1038.55 337.407C1038.55 338.906 1039.77 340.124 1041.26 340.124Z" fill="#F44D99"/>
<path d="M1052.61 392.512C1053.31 392.512 1053.88 391.943 1053.88 391.243C1053.88 390.542 1053.31 389.973 1052.61 389.973C1051.91 389.973 1051.34 390.542 1051.34 391.243C1051.34 391.943 1051.91 392.512 1052.61 392.512Z" fill="#FFE843"/>
<path d="M962.973 366.742L964.084 370.346L965.193 366.742L968.791 365.631L965.193 364.518L964.084 360.914L962.973 364.518L959.375 365.631L962.973 366.742Z" fill="#FFE843"/>
<path d="M94.9989 190.882C94.9989 188.939 93.4261 187.36 91.4807 187.36C89.5384 187.36 87.9656 188.939 87.9656 190.882C87.9656 192.83 89.5384 194.409 91.4807 194.409C93.4261 194.409 94.9989 192.83 94.9989 190.882Z" fill="#FFE843"/>
<path d="M630.365 102.462C630.365 100.519 628.792 98.9402 626.847 98.9402C624.904 98.9402 623.332 100.519 623.332 102.462C623.332 104.411 624.904 105.989 626.847 105.989C628.792 105.989 630.365 104.411 630.365 102.462Z" fill="#FFE843"/>
<path d="M41.2762 370.719L48.5202 368.483L41.2762 366.243L39.0406 358.986L36.8082 366.243L29.561 368.483L36.8082 370.719L39.0406 377.979L41.2762 370.719Z" fill="#FFE843"/>
<path d="M170.323 429.918C170.323 427.901 168.692 426.268 166.679 426.268C164.667 426.268 163.036 427.901 163.036 429.918C163.036 431.931 164.667 433.564 166.679 433.564C168.692 433.564 170.323 431.931 170.323 429.918Z" stroke="#4BDFEA" stroke-width="4.489"/>
<path d="M198.423 388.033C198.423 386.016 196.792 384.383 194.779 384.383C192.767 384.383 191.139 386.016 191.139 388.033C191.139 390.046 192.767 391.68 194.779 391.68C196.792 391.68 198.423 390.046 198.423 388.033Z" stroke="#4BDFEA" stroke-width="4.489"/>
<path d="M1387.45 149.428C1387.45 147.739 1386.08 146.372 1384.4 146.372C1382.71 146.372 1381.35 147.739 1381.35 149.428C1381.35 151.114 1382.71 152.481 1384.4 152.481C1386.08 152.481 1387.45 151.114 1387.45 149.428Z" fill="#F44D99"/>
<path d="M1254.85 157.94C1254.85 156.392 1253.6 155.137 1252.05 155.137C1250.51 155.137 1249.26 156.392 1249.26 157.94C1249.26 159.485 1250.51 160.739 1252.05 160.739C1253.6 160.739 1254.85 159.485 1254.85 157.94Z" fill="#FFE843"/>
<path d="M1299.63 58.5973C1299.63 56.8013 1298.18 55.3481 1296.38 55.3481C1294.59 55.3481 1293.14 56.8013 1293.14 58.5973C1293.14 60.3932 1294.59 61.8496 1296.38 61.8496C1298.18 61.8496 1299.63 60.3932 1299.63 58.5973Z" stroke="#4BDFEA" stroke-width="6"/>
<path d="M1358.45 80.9439C1359.39 80.4023 1359.72 79.1968 1359.18 78.2484C1358.65 77.303 1357.44 76.9695 1356.5 77.5111C1355.55 78.0496 1355.22 79.255 1355.76 80.2035C1356.3 81.1519 1357.5 81.4823 1358.45 80.9439Z" fill="#FFE843"/>
<path d="M1349.68 306.742L1350.66 303.743L1353.65 302.764L1350.66 301.788L1349.68 298.787L1348.71 301.788L1345.71 302.764L1348.71 303.743L1349.68 306.742Z" fill="#FFE843"/>
<path d="M268.936 102.816C269.593 101.987 227.28 67.0355 226.245 66.2094L164.725 16.9453C163.683 16.1161 161.714 15.9632 162.028 17.0401C162.343 18.1201 161.31 19.1175 162.346 19.9436L222.61 68.1063" fill="url(#paint2_linear_508_10328)"/>
<path d="M534.94 573.981C535.596 573.152 493.283 538.2 492.248 537.374L430.728 488.11C429.687 487.281 427.717 487.128 428.032 488.205C428.346 489.285 427.314 490.282 428.349 491.108L488.614 539.271" fill="url(#paint3_linear_508_10328)"/>
<path d="M1219.34 530.841C1220 530.012 1177.68 495.06 1176.65 494.234L1115.13 444.967C1114.09 444.141 1112.12 443.988 1112.43 445.065C1112.75 446.145 1111.71 447.142 1112.75 447.968L1173.01 496.131" fill="url(#paint4_linear_508_10328)"/>
<path d="M1321.54 52.4048C1322.08 51.7225 1287.19 22.9019 1286.34 22.2197L1235.61 -18.4045C1234.75 -19.0868 1233.12 -19.2122 1233.38 -18.325L1233.39 -18.3219C1233.65 -17.4316 1232.79 -16.6116 1233.65 -15.9294L1283.34 23.7861" fill="url(#paint5_linear_508_10328)"/>
<path d="M1408.06 41.1765C1403.56 36.676 1396.28 36.6698 1391.79 41.1673C1387.3 45.6618 1387.31 52.9587 1391.8 57.4593C1396.3 61.9629 1403.58 61.969 1408.07 57.4715C1412.55 52.974 1412.55 45.6801 1408.06 41.1765Z" fill="#FFBC4A"/>
<path d="M1393.57 39.7451C1393.18 40.1397 1393.25 40.8526 1393.75 41.3513C1394.24 41.8469 1394.95 41.9172 1395.35 41.5226L1397.49 39.3809C1397.86 39.0077 1398.49 39.0322 1398.99 39.5278C1399.36 39.9042 1399.57 40.4579 1399.32 40.7026L1391.85 48.1923C1391.42 48.6176 1391.56 49.4559 1392.06 49.9515C1392.56 50.4502 1393.39 50.594 1393.82 50.1657L1399.5 44.4781C1399.8 44.1783 1400.49 44.423 1400.92 44.8513C1401.32 45.2491 1401.21 45.5305 1401.33 46.1944L1398.22 49.3121C1397.86 49.6731 1397.96 50.3553 1398.46 50.854C1398.95 51.3497 1399.64 51.4506 1399.99 51.0896L1404.05 47.0266C1404.36 46.7207 1404.92 46.788 1405.42 47.2836C1405.81 47.6814 1406.03 48.2107 1405.8 48.434L1401.55 52.6959C1401.2 53.0416 1401.41 53.8126 1401.91 54.3113C1402.4 54.8069 1403.18 55.015 1403.52 54.6693L1407.71 50.4716C1408.03 50.1534 1408.6 50.2085 1409.1 50.7072C1409.5 51.1049 1409.7 51.6403 1409.47 51.8698L1407.14 54.2042C1406.82 54.5224 1406.96 55.1711 1407.45 55.6667C1407.95 56.1654 1408.6 56.2999 1408.92 55.9818L1409.5 55.3913C1409.13 56.1562 1408.61 56.8018 1408 57.4075C1403.52 61.905 1396.27 61.9294 1391.77 57.4289C1387.27 52.9253 1387.27 45.6315 1391.76 41.1341C1392.4 40.4885 1393.24 40.0785 1393.84 39.4788L1393.57 39.7451Z" fill="#FF9151"/>
<path d="M915.447 62.593C910.951 58.0924 903.67 58.0863 899.181 62.5838C894.691 67.0782 894.697 74.3752 899.193 78.8758C903.685 83.3794 910.969 83.3855 915.456 78.888C919.945 74.3905 919.939 67.0966 915.447 62.593Z" fill="#FFBC4A"/>
<path d="M900.964 61.1615C900.57 61.5562 900.641 62.2691 901.138 62.7678C901.633 63.2634 902.345 63.3337 902.739 62.939L904.88 60.7974C905.252 60.4241 905.881 60.4487 906.376 60.9443C906.749 61.3206 906.956 61.8743 906.712 62.1191L899.239 69.6088C898.811 70.034 898.955 70.8723 899.453 71.368C899.947 71.8667 900.784 72.0105 901.209 71.5821L906.889 65.8946C907.188 65.5947 907.885 65.8395 908.312 66.2678C908.709 66.6655 908.599 66.947 908.724 67.6109L905.609 70.7286C905.252 71.0896 905.353 71.7718 905.848 72.2705C906.342 72.7662 907.026 72.8671 907.384 72.5061L911.443 68.4431C911.748 68.1371 912.31 68.2045 912.808 68.7001C913.205 69.0978 913.415 69.6271 913.192 69.8505L908.938 74.1123C908.593 74.4581 908.804 75.2291 909.299 75.7278C909.793 76.2234 910.566 76.4315 910.911 76.0858L915.104 71.8881C915.422 71.5699 915.993 71.625 916.491 72.1237C916.888 72.5214 917.089 73.0568 916.86 73.2863L914.53 75.6207C914.212 75.9389 914.347 76.5875 914.845 77.0832C915.339 77.5819 915.987 77.7164 916.308 77.3983L916.894 76.8078C916.524 77.5727 915.996 78.2182 915.391 78.824C910.905 83.3215 903.655 83.3459 899.159 78.8454C894.664 74.3418 894.661 67.048 899.147 62.5505C899.792 61.905 900.631 61.495 901.233 60.8953L900.964 61.1615Z" fill="#FF9151"/>
<path d="M809.192 405.558C803.502 399.858 794.288 399.852 788.608 405.543C782.927 411.233 782.933 420.467 788.62 426.164C794.309 431.864 803.523 431.87 809.207 426.179C814.887 420.488 814.878 411.255 809.192 405.558Z" fill="#FFBC4A"/>
<path d="M790.865 403.742C790.364 404.244 790.455 405.147 791.081 405.774C791.711 406.401 792.612 406.493 793.109 405.994L795.818 403.28C796.288 402.809 797.086 402.84 797.712 403.467C798.185 403.941 798.448 404.645 798.139 404.957L788.678 414.432C788.137 414.974 788.324 416.033 788.95 416.66C789.576 417.29 790.636 417.474 791.173 416.932L798.362 409.733C798.741 409.351 799.623 409.663 800.164 410.204C800.668 410.709 800.524 411.064 800.683 411.905L796.744 415.852C796.289 416.308 796.417 417.174 797.046 417.801C797.672 418.428 798.536 418.557 798.991 418.101L804.125 412.958C804.513 412.569 805.225 412.655 805.851 413.285C806.354 413.787 806.62 414.457 806.339 414.738L800.958 420.132C800.518 420.57 800.784 421.549 801.413 422.176C802.039 422.803 803.016 423.069 803.453 422.632L808.758 417.317C809.161 416.914 809.885 416.987 810.514 417.614C811.018 418.119 811.271 418.798 810.981 419.089L808.034 422.041C807.634 422.445 807.802 423.265 808.431 423.895C809.057 424.523 809.879 424.694 810.282 424.29L811.024 423.547C810.56 424.513 809.888 425.33 809.124 426.095C803.444 431.786 794.267 431.82 788.58 426.123C782.891 420.423 782.885 411.192 788.565 405.499C789.38 404.685 790.443 404.165 791.204 403.403L790.865 403.742Z" fill="#FF9151"/>
<path d="M537.062 232.023C537.062 238.396 542.211 243.56 548.563 243.56C554.916 243.56 560.065 238.396 560.065 232.023C560.065 225.653 554.916 220.485 548.563 220.485C542.211 220.485 537.062 225.653 537.062 232.023Z" fill="#6679BF"/>
<path d="M551.153 237.101C551.153 235.666 549.993 234.504 548.564 234.504C547.134 234.504 545.974 235.666 545.974 237.101C545.974 238.536 547.134 239.699 548.564 239.699C549.993 239.699 551.153 238.536 551.153 237.101Z" fill="#303B72"/>
<path d="M548.093 239.699C548.093 238.656 547.247 237.808 546.209 237.808C545.168 237.808 544.325 238.656 544.325 239.699C544.325 240.742 545.168 241.59 546.209 241.59C547.247 241.59 548.093 240.742 548.093 239.699Z" fill="#303B72"/>
<path d="M545.855 226.105C545.855 225.258 545.171 224.57 544.325 224.57C543.479 224.57 542.795 225.258 542.795 226.105C542.795 226.953 543.479 227.638 544.325 227.638C545.171 227.638 545.855 226.953 545.855 226.105Z" fill="#303B72"/>
<path d="M557.423 233.341C557.423 232.689 556.898 232.163 556.25 232.163C555.6 232.163 555.075 232.689 555.075 233.341C555.075 233.993 555.6 234.522 556.25 234.522C556.898 234.522 557.423 233.993 557.423 233.341Z" fill="#303B72"/>
<path d="M555.038 226.118C555.038 224.747 553.932 223.636 552.567 223.636C551.202 223.636 550.094 224.747 550.094 226.118C550.094 227.488 551.202 228.599 552.567 228.599C553.932 228.599 555.038 227.488 555.038 226.118Z" fill="#303B72"/>
<path d="M1369.89 349.508C1369.89 355.88 1375.04 361.045 1381.39 361.045C1387.74 361.045 1392.89 355.88 1392.89 349.508C1392.89 343.138 1387.74 337.97 1381.39 337.97C1375.04 337.97 1369.89 343.138 1369.89 349.508Z" fill="#6679BF"/>
<path d="M1383.98 354.586C1383.98 353.151 1382.82 351.989 1381.39 351.989C1379.96 351.989 1378.8 353.151 1378.8 354.586C1378.8 356.021 1379.96 357.184 1381.39 357.184C1382.82 357.184 1383.98 356.021 1383.98 354.586Z" fill="#303B72"/>
<path d="M1380.92 357.184C1380.92 356.141 1380.07 355.293 1379.03 355.293C1377.99 355.293 1377.15 356.141 1377.15 357.184C1377.15 358.227 1377.99 359.075 1379.03 359.075C1380.07 359.075 1380.92 358.227 1380.92 357.184Z" fill="#303B72"/>
<path d="M1378.68 343.59C1378.68 342.743 1378 342.054 1377.15 342.054C1376.3 342.054 1375.62 342.743 1375.62 343.59C1375.62 344.438 1376.3 345.123 1377.15 345.123C1378 345.123 1378.68 344.438 1378.68 343.59Z" fill="#303B72"/>
<path d="M1390.25 350.826C1390.25 350.175 1389.72 349.649 1389.08 349.649C1388.43 349.649 1387.9 350.175 1387.9 350.826C1387.9 351.478 1388.43 352.007 1389.08 352.007C1389.72 352.007 1390.25 351.478 1390.25 350.826Z" fill="#303B72"/>
<path d="M1387.86 343.603C1387.86 342.232 1386.76 341.121 1385.39 341.121C1384.03 341.121 1382.92 342.232 1382.92 343.603C1382.92 344.973 1384.03 346.084 1385.39 346.084C1386.76 346.084 1387.86 344.973 1387.86 343.603Z" fill="#303B72"/>
<path d="M600.228 29.2384C597.602 21.966 589.591 18.2089 582.341 20.8462C575.091 23.4835 571.343 31.5177 573.973 38.7902C576.602 46.0626 584.61 49.8197 591.863 47.1855C599.113 44.5451 602.858 36.5109 600.228 29.2384Z" fill="#FFA283"/>
<path d="M594.545 30.3274L583.633 34.2986C583.337 34.6015 583.193 34.9932 583.336 35.3909C583.526 35.9172 584.118 36.1711 584.662 35.9753L587.786 34.8402C588.363 34.6291 588.983 34.883 589.173 35.4092C589.362 35.9355 589.047 36.529 588.473 36.7371L585.401 37.8538C585.807 37.8048 586.229 38.1016 586.394 38.5544C586.583 39.0807 586.363 39.6528 585.902 39.8211L582.503 41.0602C582.228 41.3539 582.106 41.7731 582.258 42.1953C582.448 42.7215 582.985 43.0305 583.449 42.8623L589.57 40.638C590.077 40.4544 590.639 40.7298 590.828 41.2529C591.02 41.7792 590.761 42.3544 590.257 42.5379L584.048 44.7959C583.755 45.0009 583.657 45.4597 583.81 45.8789C583.999 46.4051 584.509 46.6805 584.955 46.5153L590.88 44.3614C591.402 44.1717 591.982 44.4409 592.172 44.9672C592.361 45.4903 592.089 46.0716 591.567 46.2613L587.02 47.9135C586.977 47.9319 586.946 47.9839 586.91 48.0176C581.269 47.9411 576.007 44.4195 573.973 38.7869C571.344 31.5114 575.091 23.4802 582.341 20.8429C582.955 20.6195 583.566 20.4145 584.185 20.2799C584.363 20.8 584.127 21.3171 583.672 21.4853L580.273 22.7214C579.999 23.0151 579.876 23.4373 580.029 23.8565C580.218 24.3827 580.759 24.6948 581.223 24.5266L587.34 22.2992C587.847 22.1156 588.409 22.391 588.602 22.9172C588.791 23.4404 588.534 24.0156 588.027 24.1992L581.819 26.4571C581.559 26.7477 581.446 27.1639 581.596 27.5861C581.788 28.1123 582.31 28.4274 582.759 28.2653L588.681 26.1114C589.206 25.9186 589.783 26.1909 589.973 26.7171C590.165 27.2403 589.893 27.8186 589.368 28.0113L584.824 29.6634C584.46 29.8929 584.317 30.3825 584.47 30.8047C584.634 31.2575 585.099 31.5175 585.569 31.4441L593.857 28.4274C594.48 28.201 595.137 28.4427 595.329 28.969C595.519 29.4952 595.168 30.101 594.545 30.3274Z" fill="#FE5E78"/>
<path d="M68.2215 293.886C65.5951 286.613 57.5845 282.856 50.3343 285.494C43.0841 288.131 39.3368 296.165 41.9663 303.438C44.5958 310.71 52.6034 314.467 59.8566 311.833C67.1068 309.193 70.851 301.158 68.2215 293.886Z" fill="#FFA283"/>
<path d="M62.538 294.975L51.6261 298.946C51.3299 299.249 51.1863 299.641 51.3299 300.038C51.5192 300.565 52.1117 300.819 52.6553 300.623L55.7796 299.485C56.3568 299.277 56.9767 299.531 57.1661 300.057C57.3554 300.583 57.0409 301.177 56.4667 301.385L53.3944 302.501C53.8006 302.452 54.222 302.749 54.3869 303.202C54.5763 303.728 54.3564 304.3 53.8952 304.469L50.4961 305.708C50.2213 306.001 50.0991 306.421 50.2518 306.843C50.4412 307.369 50.9787 307.678 51.4429 307.51L57.5631 305.285C58.0701 305.102 58.632 305.377 58.8213 305.9C59.0137 306.427 58.7541 307.002 58.2502 307.185L52.0415 309.443C51.7483 309.645 51.6505 310.107 51.8032 310.526C51.9926 311.053 52.5026 311.328 52.9485 311.163L58.8733 309.009C59.3955 308.819 59.9757 309.088 60.1651 309.615C60.3544 310.138 60.0826 310.719 59.5604 310.909L55.013 312.561C54.9702 312.579 54.9397 312.631 54.9031 312.665C49.2623 312.589 44.0003 309.067 41.9663 303.434C39.3368 296.159 43.0841 288.128 50.3343 285.49C50.9481 285.267 51.5589 285.062 52.1789 284.927C52.356 285.448 52.1209 285.965 51.6658 286.133L48.2667 287.369C47.9919 287.663 47.8697 288.085 48.0224 288.504C48.2117 289.03 48.7523 289.342 49.2165 289.174L55.3337 286.947C55.8406 286.763 56.4026 287.039 56.595 287.565C56.7843 288.088 56.5278 288.663 56.0208 288.847L49.812 291.105C49.5524 291.395 49.4395 291.811 49.5891 292.234C49.7815 292.76 50.3037 293.075 50.7527 292.913L56.6744 290.759C57.1997 290.566 57.7769 290.838 57.9662 291.365C58.1586 291.888 57.8868 292.466 57.3615 292.659L52.8172 294.311C52.4537 294.54 52.3102 295.03 52.4629 295.452C52.6278 295.905 53.092 296.165 53.5623 296.092L61.8509 293.075C62.4739 292.849 63.1305 293.09 63.3229 293.616C63.5123 294.143 63.1611 294.749 62.538 294.975Z" fill="#FE5E78"/>
</g>
<defs>
<linearGradient id="paint0_linear_508_10328" x1="-416.106" y1="140.234" x2="358.365" y2="140.234" gradientUnits="userSpaceOnUse">
<stop stop-color="white"/>
<stop offset="1" stop-color="white" stop-opacity="0.01"/>
</linearGradient>
<linearGradient id="paint1_linear_508_10328" x1="1074.52" y1="-601.98" x2="1964.56" y2="-601.98" gradientUnits="userSpaceOnUse">
<stop stop-color="white" stop-opacity="0.01"/>
<stop offset="1" stop-color="white"/>
</linearGradient>
<linearGradient id="paint2_linear_508_10328" x1="170.7" y1="92.7356" x2="268.367" y2="103.286" gradientUnits="userSpaceOnUse">
<stop stop-color="white"/>
<stop offset="1" stop-color="#2AB0FF"/>
</linearGradient>
<linearGradient id="paint3_linear_508_10328" x1="436.704" y1="563.9" x2="534.37" y2="574.45" gradientUnits="userSpaceOnUse">
<stop stop-color="white"/>
<stop offset="1" stop-color="#2AB0FF"/>
</linearGradient>
<linearGradient id="paint4_linear_508_10328" x1="1121.1" y1="520.761" x2="1218.77" y2="531.311" gradientUnits="userSpaceOnUse">
<stop stop-color="white"/>
<stop offset="1" stop-color="#2AB0FF"/>
</linearGradient>
<linearGradient id="paint5_linear_508_10328" x1="1240.55" y1="44.1903" x2="1321.08" y2="52.8905" gradientUnits="userSpaceOnUse">
<stop stop-color="white"/>
<stop offset="1" stop-color="#2AB0FF"/>
</linearGradient>
<clipPath id="clip0_508_10328">
<rect width="1446.98" height="499.948" fill="white" transform="matrix(1 -8.7605e-08 -8.7241e-08 -1 3.01562 500.94)"/>
</clipPath>
</defs>
</svg>
