<svg width="24" height="24" viewBox="0 0 24 24" fill="none" xmlns="http://www.w3.org/2000/svg">
<path d="M12 15.9304C15.1038 15.9304 17.62 13.4143 17.62 10.3104C17.62 7.20659 15.1038 4.69043 12 4.69043C8.89616 4.69043 6.38 7.20659 6.38 10.3104C6.38 13.4143 8.89616 15.9304 12 15.9304Z" stroke="white" stroke-width="5"/>
<path d="M18.4293 8.94149L18.4294 8.94158C19.3318 12.9278 16.8832 16.5349 14.2147 19.0974L14.2111 19.101C12.9783 20.2908 11.0244 20.296 9.77643 19.0985C7.11792 16.5359 4.66848 12.9195 5.57038 8.93273C6.31054 5.68094 9.05561 3.99801 12.0024 4C14.9497 4.00199 17.6933 5.68922 18.4293 8.94149Z" stroke="white" stroke-width="4"/>
</svg>
