<svg width="24" height="24" viewBox="0 0 24 24" fill="none" xmlns="http://www.w3.org/2000/svg">
<path d="M17 20H7C4 20 2 18 2 15V9C2 6 4 4 7 4H17C20 4 22 6 22 9V15C22 18 20 20 17 20Z" stroke="white" stroke-width="1.5" stroke-miterlimit="10" stroke-linecap="round" stroke-linejoin="round"/>
<path d="M10.8855 10.3573L13.3625 11.8435C13.5083 11.9438 13.5563 12.0176 13.571 12.0498C13.5563 12.082 13.5083 12.1558 13.3625 12.2562L10.8855 13.7423C10.767 13.8134 10.6827 13.8408 10.6342 13.8509C10.6185 13.8061 10.6 13.7255 10.6 13.5998V10.5998C10.6 10.4269 10.6206 10.3123 10.6407 10.2431C10.6967 10.2599 10.7785 10.2931 10.8855 10.3573ZM13.5769 12.0676C13.5767 12.0677 13.5761 12.0657 13.5756 12.0617C13.5768 12.0656 13.5771 12.0676 13.5769 12.0676ZM13.5756 12.038C13.5761 12.0339 13.5767 12.032 13.5769 12.032C13.5771 12.032 13.5768 12.0341 13.5756 12.038Z" stroke="white" stroke-width="2" stroke-miterlimit="10" stroke-linecap="round" stroke-linejoin="round"/>
</svg>
