<svg width="64" height="65" viewBox="0 0 64 65" fill="none" xmlns="http://www.w3.org/2000/svg">
<path fill-rule="evenodd" clip-rule="evenodd" d="M12.772 13.6827C12.2786 13.8968 11.8691 14.2643 11.6466 14.6924C11.4863 15.0008 8.43422 31.9879 8.43422 32.5717C8.43422 32.9703 8.92699 33.4407 9.34451 33.4407C9.70073 33.4407 10.1328 33.1161 10.2373 32.77C10.2721 32.655 10.9686 28.7595 11.785 24.1135C12.6014 19.4675 13.3221 15.6003 13.3863 15.5196C13.4788 15.4035 17.0283 15.373 30.4263 15.373C39.7341 15.373 47.3495 15.4132 47.3495 15.4623C47.3495 15.5114 46.6902 19.2894 45.8844 23.8577C45.0785 28.4262 44.4192 32.3418 44.4192 32.5592C44.4192 32.8463 44.5036 33.0208 44.728 33.1975C45.4333 33.7529 46.1092 33.3203 46.3186 32.1794L46.4532 31.4462H52.3557C57.4179 31.4462 58.3198 31.472 58.6922 31.6278C59.4201 31.9321 59.8676 32.4607 60.0532 33.2353L60.1304 33.558H58.4195C56.7094 33.558 56.7086 33.5581 56.3865 33.8806C56.1109 34.1567 56.0339 34.3926 55.8536 35.515C55.5958 37.1186 55.6631 37.7159 56.1772 38.389C56.7263 39.1078 57.4018 39.4241 58.3884 39.4241C59.1619 39.4241 59.1905 39.4342 59.1336 39.6881C59.1012 39.8333 58.9379 40.744 58.7707 41.7119C58.6037 42.6798 58.4268 43.5134 58.3777 43.5642C58.3286 43.6151 57.7729 43.6415 57.1426 43.6229L55.9968 43.5891L55.7326 42.8579C55.1137 41.1455 53.5894 39.9288 51.7324 39.6653C49.2919 39.3191 46.5861 40.6365 45.1238 42.8831C44.597 43.6924 44.2286 43.9035 44.3524 43.3251C44.3903 43.1477 44.6819 41.5255 45.0002 39.7204C45.6292 36.1529 45.6292 36.0399 44.9972 35.6854C44.6116 35.4691 44.1281 35.5856 43.8878 35.9524C43.7493 36.1642 42.4265 43.0474 42.4265 43.5569C42.4265 43.6068 38.5216 43.6477 33.749 43.6477C26.9122 43.6477 25.0606 43.6166 25.0205 43.5011C24.5773 42.2243 24.414 41.9297 23.7638 41.2339C22.922 40.3331 21.9743 39.8337 20.7877 39.6653C18.3483 39.3192 15.6102 40.6546 14.1613 42.897L13.6763 43.6477H11.0747C9.64399 43.6477 8.447 43.6213 8.41476 43.5892C8.38253 43.5569 8.44078 43.0686 8.54405 42.504L8.73171 41.4773L11.0738 41.4186C12.362 41.3863 13.4766 41.3204 13.5509 41.2722C14.0454 40.9505 13.8704 39.8764 13.2871 39.6544C13.0848 39.5773 11.1077 39.5463 7.76258 39.5673L2.55296 39.6001L2.27024 39.9293C1.92329 40.333 1.91086 40.7029 2.23039 41.1095L2.47326 41.4186H4.63329C5.82127 41.4186 6.79309 41.4581 6.79286 41.5066C6.79263 41.5551 6.70975 42.0679 6.60872 42.6463C6.50756 43.2247 6.45763 43.8725 6.4976 44.0859C6.59688 44.6156 7.18916 45.2589 7.71124 45.4041C7.94778 45.4698 9.25168 45.5238 10.609 45.5242L13.0769 45.5249L13.0915 46.4928C13.1575 50.8565 17.867 52.942 21.8111 50.3541C23.4859 49.2553 24.5318 47.7365 25.0356 45.6716C25.0638 45.5558 27.0655 45.5249 34.5558 45.5249H44.0402L44.0868 46.6819C44.129 47.7335 44.173 47.9198 44.5711 48.7259C45.263 50.1272 46.4638 51.048 48.0293 51.3775C48.9307 51.5674 49.6529 51.5392 50.6889 51.2741C53.0358 50.6733 54.969 48.8414 55.7454 46.4824L56.0606 45.5249H57.6888C59.6048 45.5249 59.9306 45.4188 60.1227 44.7323C60.3433 43.9443 62.0014 34.2401 62 33.7458C61.995 32.0035 60.6786 30.1935 59.1114 29.774C58.5171 29.6149 58.5758 29.8765 58.3118 26.2077C58.0915 23.1445 58.0881 23.3509 58.3592 23.3509C58.7534 23.3509 59.0216 22.8434 59.1754 21.8065C59.4566 19.9097 58.7884 18.5212 57.2542 17.8138C56.6857 17.5515 56.5517 17.5424 52.7857 17.5071L48.9032 17.4706L49.064 16.6272C49.3885 14.9242 49.1831 14.1529 48.2849 13.7014C47.902 13.5087 46.8166 13.4964 30.5292 13.5006C15.299 13.5045 13.1315 13.5267 12.772 13.6827ZM56.3382 19.4871C57.0405 19.7534 57.5368 20.5627 57.3803 21.1867L57.3084 21.4738H52.758H48.2077L48.3705 20.5645C48.46 20.0645 48.5555 19.5893 48.5824 19.5086C48.6469 19.3163 55.8351 19.2964 56.3382 19.4871ZM56.2579 23.6628C56.2579 23.9294 56.5974 28.5835 56.6566 29.1291L56.7045 29.569H51.7214C47.7842 29.569 46.7498 29.5383 46.7927 29.4224C46.8225 29.3418 47.0748 27.9691 47.3533 26.372L47.8596 23.4682H52.0587C55.8911 23.4682 56.2579 23.4852 56.2579 23.6628ZM36.4847 28.6316C36.3434 28.6885 36.141 28.8678 36.0348 29.03C35.7045 29.5346 35.8954 29.9374 36.8568 30.7639L37.7188 31.5048L25.5863 31.5635L13.4537 31.6222L13.2296 31.8992C12.9177 32.2847 12.9441 32.8031 13.2934 33.1526L13.581 33.4407L25.3958 33.4428L37.2105 33.445L36.2141 34.0915C35.0923 34.8194 34.8076 35.1047 34.8076 35.5003C34.8076 35.8487 35.2458 36.344 35.6344 36.435C36.0591 36.5342 40.8689 33.4066 41.1254 32.8644C41.3921 32.3009 41.1635 31.9965 39.2031 30.3043C37.0553 28.4502 37.0074 28.4208 36.4847 28.6316ZM59.8496 35.6405C59.8177 35.7533 59.7302 36.2285 59.6552 36.6964L59.5187 37.547H58.7473C57.5736 37.547 57.401 37.3025 57.6742 36.0275L57.8011 35.4352H58.8542C59.801 35.4352 59.9015 35.4559 59.8496 35.6405ZM5.01225 35.9091C4.71405 36.2076 4.66775 36.3273 4.72859 36.6424C4.76856 36.8496 4.9125 37.1115 5.04835 37.2243C5.27891 37.4159 5.8971 37.4296 14.3132 37.4296H23.3312L23.6188 37.1416C24.0872 36.6729 23.9688 36.0148 23.3575 35.6889C23.1694 35.5886 20.751 35.5525 14.2351 35.5525H5.36858L5.01225 35.9091ZM27.5871 39.709C26.9991 39.9652 26.8721 40.721 27.3426 41.1635L27.614 41.4186H33.9653C40.1604 41.4186 40.3224 41.4129 40.5511 41.184C40.8025 40.9323 40.8602 40.3695 40.6708 40.0153C40.4334 39.5714 39.9988 39.5413 33.8817 39.546C29.1687 39.5497 27.8758 39.5832 27.5871 39.709ZM21.5306 41.8479C23.6679 42.8575 23.7771 45.9811 21.746 48.014C19.9578 49.8037 17.447 50.1332 15.9653 48.7727C15.2596 48.1248 14.977 47.4707 14.9707 46.4709C14.95 43.1449 18.6925 40.5074 21.5306 41.8479ZM52.502 41.8692C52.8972 42.0635 53.2879 42.3756 53.5244 42.6859C54.9359 44.5382 53.8683 47.6977 51.3902 49.0025C49.6101 49.9396 47.9479 49.8111 46.8152 48.6485C46.0973 47.9117 45.8981 47.3145 45.9601 46.085C46.1186 42.9453 49.8279 40.5549 52.502 41.8692ZM18.2507 43.8905C17.2727 44.4073 16.8261 45.8723 17.4084 46.653C17.855 47.2518 18.2353 47.4524 18.9238 47.4524C20.8715 47.4524 21.7917 44.8055 20.175 43.8531C19.7078 43.5778 18.8093 43.5953 18.2507 43.8905ZM49.1954 43.8905C48.2239 44.4039 47.7748 45.8765 48.3531 46.6526C48.7973 47.2486 49.1807 47.4524 49.8582 47.4524C51.8011 47.4524 52.7578 44.8714 51.1773 43.8938C50.6636 43.5759 49.7935 43.5745 49.1954 43.8905Z" fill="#47258F"/>
</svg>
