<svg width="64" height="65" viewBox="0 0 64 65" fill="none" xmlns="http://www.w3.org/2000/svg">
<path fill-rule="evenodd" clip-rule="evenodd" d="M31.216 5.61925C31.0401 5.67049 30.356 6.03896 29.6957 6.43798C28.3438 7.25504 28.2933 7.26477 26.7919 6.99794C26.2526 6.90199 25.5713 6.85303 25.1657 6.88108C24.1216 6.95301 23.6936 7.26394 22.5636 8.77128L21.6354 10.0094L20.9651 10.1905C20.5964 10.2902 19.9118 10.4701 19.4437 10.5904C18.4916 10.835 17.9075 11.2002 17.5141 11.7969C17.3621 12.0274 17.0965 12.8037 16.8675 13.6866L16.479 15.1852L15.245 16.1167C13.315 17.5737 13.1395 18.0162 13.4942 20.5299L13.6824 21.8645L13.4594 22.3028C13.3368 22.5438 12.9817 23.1785 12.6703 23.7132C11.7207 25.3437 11.7601 26.0195 12.9161 27.937C13.7212 29.2725 13.7218 29.2755 13.4867 30.7109C13.0978 33.0865 13.355 33.7116 15.298 35.1134C15.8652 35.5228 16.3826 35.9572 16.4477 36.0789C16.5127 36.2005 16.7173 36.9021 16.9023 37.6378C17.385 39.558 17.9094 40.197 19.3293 40.5957C19.6901 40.6971 19.9773 40.82 19.9675 40.8689C19.9577 40.9178 18.6436 43.8809 17.0474 47.4535C14.8652 52.3374 14.1625 54.0068 14.2156 54.1813C14.3129 54.5019 14.5441 54.7468 14.8107 54.8117C14.9342 54.8418 16.0918 54.7385 17.3833 54.5822C19.5019 54.3259 19.7448 54.3138 19.8676 54.4592C19.9424 54.5479 20.5902 55.4651 21.3073 56.4975C22.0243 57.53 22.6854 58.4032 22.7763 58.4382C23.0728 58.5525 23.4132 58.5054 23.6274 58.3207C23.7429 58.2211 25.1647 55.1614 26.7869 51.5213C28.4091 47.8811 29.754 44.8852 29.7756 44.8636C29.7971 44.842 30.0101 44.948 30.2489 45.0992C31.4444 45.8568 32.6327 45.8519 33.7905 45.0849C34.0096 44.9397 34.2241 44.8601 34.2672 44.9078C34.3104 44.9555 35.6522 47.9289 37.2492 51.5153C39.1862 55.8656 40.2396 58.1136 40.4135 58.269C40.7642 58.582 41.1337 58.564 41.4728 58.2172C41.6259 58.0607 42.317 57.112 43.0085 56.109C44.0881 54.5432 44.299 54.2908 44.5011 54.3226C44.6306 54.3429 45.7245 54.4772 46.932 54.621C48.4995 54.8075 49.1838 54.852 49.3245 54.7764C49.5795 54.6394 49.8415 54.2616 49.8415 54.0308C49.8415 53.9311 48.542 50.9393 46.9538 47.3825C45.3656 43.8256 44.0662 40.8742 44.0662 40.8237C44.0662 40.7733 44.321 40.6747 44.6326 40.6048C44.944 40.5348 45.4182 40.3294 45.6864 40.1484C46.4348 39.6431 46.718 39.1494 47.0671 37.7417C47.2354 37.0626 47.4238 36.3788 47.4857 36.2219C47.5554 36.045 48.0198 35.6257 48.7071 35.1189C50.6545 33.6832 50.9012 33.081 50.5133 30.7109C50.2782 29.2755 50.2788 29.2725 51.0839 27.937C52.2399 26.0195 52.2793 25.3437 51.3297 23.7132C51.0183 23.1785 50.6632 22.5438 50.5406 22.3028L50.3176 21.8645L50.5058 20.5299C50.8605 18.0162 50.685 17.5737 48.755 16.1167L47.521 15.1852L47.1335 13.6843C46.5236 11.3227 46.2131 11.011 43.8599 10.3989L42.3646 10.0099L41.4364 8.77149C40.3064 7.26384 39.8786 6.95301 38.8343 6.88108C38.4287 6.85303 37.7474 6.90199 37.2081 6.99794C35.7073 7.26467 35.6556 7.25473 34.3093 6.44098C32.769 5.51016 32.1529 5.34642 31.216 5.61925ZM33.4034 7.84585C35.1752 8.92188 35.3515 8.95604 37.5336 8.64552C38.5231 8.50476 38.8435 8.49275 39.0533 8.5887C39.1995 8.65556 39.7147 9.24689 40.1982 9.90269C40.6818 10.5585 41.2526 11.2115 41.4669 11.3538C41.6891 11.5013 42.4342 11.7628 43.2009 11.9622C44.5841 12.322 44.8757 12.4328 45.0758 12.6749C45.1397 12.752 45.3554 13.4613 45.5554 14.2511C45.7757 15.1211 46.0227 15.8445 46.1822 16.0864C46.3285 16.3082 46.973 16.8774 47.6322 17.3669C48.2849 17.8516 48.8724 18.3659 48.9376 18.5096C49.0282 18.7091 49.024 19.008 48.9197 19.7727C48.7042 21.3542 48.6734 22.1182 48.8089 22.5303C48.8772 22.7378 49.2569 23.4524 49.6527 24.1181C50.5205 25.5773 50.5233 25.6759 49.7344 26.9391C48.6422 28.6884 48.558 29.0713 48.8603 30.9179C49.0558 32.1121 49.0547 32.5248 48.8553 32.8104C48.7668 32.9375 48.1938 33.4121 47.582 33.8655C46.9285 34.3497 46.3527 34.8671 46.1859 35.1199C45.9995 35.4026 45.7849 36.0301 45.5602 36.949C45.3039 37.9979 45.1558 38.4106 44.9678 38.5993C44.7827 38.7849 44.3629 38.9404 43.3652 39.193C41.5434 39.6541 41.2773 39.8268 40.2606 41.209C39.8021 41.8323 39.3235 42.4151 39.1969 42.504C38.9087 42.7065 38.3793 42.7083 37.2596 42.5104C35.502 42.1997 35.1275 42.2823 33.411 43.3597C32.0976 44.1841 31.9042 44.1774 30.4105 43.2565C28.8345 42.2848 28.454 42.2074 26.7404 42.5104C25.6207 42.7083 25.0913 42.7065 24.8031 42.504C24.6765 42.4151 24.1979 41.8323 23.7394 41.209C22.7227 39.8268 22.4566 39.6541 20.6348 39.193C18.886 38.7504 18.8669 38.7315 18.4701 37.0621C18.0338 35.2268 17.8499 34.9376 16.4567 33.8969C15.8205 33.4217 15.2287 32.9309 15.1418 32.8063C14.9453 32.5248 14.9448 32.1082 15.1397 30.9179C15.4411 29.0768 15.3691 28.7404 14.3028 27.0105C13.4736 25.6652 13.4749 25.5853 14.3473 24.1181C14.7431 23.4524 15.1228 22.7378 15.1911 22.5303C15.3266 22.1182 15.2958 21.3542 15.0803 19.7727C14.976 19.008 14.9718 18.7091 15.0624 18.5096C15.1276 18.3659 15.7151 17.8516 16.3678 17.3669C17.027 16.8774 17.6715 16.3082 17.8178 16.0864C17.9779 15.8434 18.2235 15.1226 18.4448 14.2459C18.7001 13.2341 18.8763 12.7375 19.036 12.5795C19.1912 12.4261 19.721 12.2368 20.7028 11.984C21.5622 11.7628 22.3013 11.5078 22.5367 11.3513C22.7539 11.2072 23.3259 10.5539 23.8093 9.89834C24.2923 9.24326 24.8056 8.65318 24.95 8.58715C25.1556 8.49316 25.4848 8.5059 26.4664 8.64552C28.6525 8.95666 28.8417 8.92012 30.5991 7.84947C31.2487 7.45367 31.8423 7.16354 32.0025 7.16354C32.1621 7.16354 32.7573 7.45336 33.4034 7.84585ZM29.8946 10.6296C25.0222 11.3294 20.6824 14.4569 18.5523 18.8035C17.9084 20.1172 17.5695 21.0941 17.2339 22.6048C16.9202 24.0157 16.8929 27.0028 17.1811 28.382C17.6738 30.7414 18.8236 33.3206 19.984 34.6699C20.3071 35.0455 20.4205 35.1098 20.7594 35.1098C21.0654 35.1098 21.2054 35.0473 21.3701 34.8371C21.4877 34.6871 21.5839 34.4636 21.5839 34.3405C21.5839 34.2173 21.2828 33.6615 20.9149 33.1053C19.8386 31.4784 19.2496 30.0777 18.8396 28.1695C18.5769 26.9471 18.577 24.227 18.8399 23.0039C19.229 21.1929 19.9029 19.5665 20.8786 18.0833C21.5623 17.0439 23.3513 15.2301 24.3692 14.5442C28.2614 11.9213 32.8982 11.4464 37.1556 13.2342C37.6382 13.4369 38.1409 13.6271 38.2726 13.657C38.8507 13.7882 39.3543 13.1232 39.1153 12.5442C39.017 12.306 38.813 12.1498 38.2519 11.8836C37.3224 11.4423 35.8126 10.9571 34.6814 10.7359C33.4662 10.4984 31.1641 10.4472 29.8946 10.6296ZM40.784 14.3379C40.6473 14.484 40.5598 14.7108 40.5598 14.919C40.5598 15.2051 40.6891 15.394 41.3544 16.0802C41.7915 16.5309 42.2564 16.9267 42.3877 16.9598C42.9546 17.1026 43.5531 16.5018 43.4109 15.9329C43.3779 15.8011 42.9835 15.3345 42.5344 14.8959C41.8371 14.2149 41.6661 14.0984 41.3631 14.0984C41.1256 14.0984 40.9341 14.1775 40.784 14.3379ZM31.5875 15.9678C31.0192 16.0944 30.69 16.6006 29.5764 19.0595C28.6835 21.0311 28.5105 21.3439 28.2873 21.3894C28.1455 21.4184 26.9621 21.5647 25.6575 21.7145C24.0359 21.9009 23.1878 22.0427 22.9764 22.1626C22.2976 22.5482 22.0057 23.4558 22.3472 24.1187C22.4269 24.2732 23.355 25.2042 24.4098 26.1879C25.4648 27.1716 26.3279 28.0357 26.3279 28.1081C26.3279 28.1805 26.119 29.2819 25.8638 30.5556C25.6085 31.8293 25.3997 33.0655 25.3997 33.3025C25.3997 34.1395 26.1769 34.8602 26.974 34.7627C27.2165 34.7329 28.2338 34.2267 29.6848 33.4138L32.0074 32.1125L34.3235 33.4139C35.7714 34.2274 36.7847 34.733 37.0269 34.7628C37.8231 34.8602 38.6003 34.1389 38.6003 33.3025C38.6003 33.0655 38.3915 31.8293 38.1362 30.5556C37.881 29.2819 37.6721 28.1814 37.6721 28.1102C37.6721 28.0389 38.5337 27.1778 39.5866 26.1967C40.6397 25.2155 41.5679 24.2834 41.6492 24.1255C41.9941 23.4562 41.706 22.5517 41.0236 22.1614C40.8106 22.0396 39.9767 21.8999 38.3425 21.7122C37.0379 21.5623 35.8545 21.4163 35.7127 21.3878C35.4896 21.343 35.317 21.0331 34.4321 19.0886C33.4128 16.8487 33.0779 16.2522 32.7435 16.0809C32.4488 15.93 31.9681 15.8829 31.5875 15.9678ZM33.139 20.2668C33.7328 21.5636 34.3104 22.6849 34.4355 22.7837C34.6061 22.9183 35.2942 23.0357 37.2495 23.2635C38.6731 23.4294 39.8379 23.5924 39.8379 23.6258C39.8379 23.659 39.2925 24.1903 38.6261 24.8063C36.2704 26.9839 35.9189 27.3532 35.9189 27.6509C35.9189 27.8034 36.1273 28.9967 36.382 30.3028C36.6366 31.6089 36.8455 32.7318 36.8461 32.7982C36.8466 32.8647 35.9918 32.4365 34.9465 31.8467C32.5198 30.4775 32.2645 30.3486 31.978 30.3486C31.848 30.3486 30.7091 30.9275 29.4472 31.6351C28.1853 32.3426 27.1533 32.8665 27.1538 32.7995C27.1542 32.7323 27.363 31.6062 27.6175 30.2968C27.8721 28.9875 28.0805 27.7917 28.0808 27.6396C28.0812 27.3185 28.0476 27.2827 25.8092 25.2128C24.9033 24.375 24.1621 23.6614 24.1621 23.6268C24.1621 23.5923 25.3107 23.4338 26.7146 23.2746C28.6595 23.054 29.3283 22.9412 29.5243 22.8006C29.698 22.676 30.1304 21.8561 30.8576 20.2721C31.4496 18.9828 31.964 17.928 32.0009 17.928C32.0378 17.928 32.55 18.9805 33.139 20.2668ZM44.0727 18.5939C43.7641 18.9235 43.8169 19.342 44.3189 20.5436C44.5273 21.0429 44.8196 21.9046 44.9682 22.4584C45.2144 23.3764 45.239 23.6441 45.2453 25.4839C45.2509 27.1094 45.2147 27.6634 45.0593 28.3302C44.4207 31.0723 43.1694 33.3197 41.2372 35.1956C38.687 37.6716 35.5534 38.9488 32 38.9606C29.2234 38.9699 26.6586 38.1836 24.3901 36.6277C23.4185 35.9611 23.0632 35.8928 22.6621 36.2955C22.1324 36.8269 22.4317 37.3607 23.7256 38.1923C27.7104 40.7535 32.4015 41.3489 36.7955 39.8512C41.2616 38.3291 44.7327 34.8001 46.2329 30.2567C46.8364 28.4288 46.99 27.2787 46.9235 25.0883C46.866 23.194 46.7115 22.2469 46.2284 20.8262C45.8895 19.8298 45.3291 18.6429 45.1234 18.4862C44.8284 18.2615 44.3366 18.3119 44.0727 18.5939ZM45.0972 47.3C46.4748 50.3897 47.5827 52.9369 47.5592 52.9605C47.5358 52.9841 46.6748 52.9037 45.6458 52.7819C44.247 52.6163 43.7138 52.5885 43.5318 52.6718C43.398 52.7329 42.8021 53.486 42.2077 54.3453C41.6134 55.2045 41.1038 55.9081 41.0754 55.9088C40.9742 55.9109 35.7432 44.0622 35.8306 44.0284C35.8795 44.0093 36.4131 44.0714 37.0163 44.1664C37.6195 44.2613 38.3112 44.339 38.5533 44.339H38.9934L40.358 47.4096C41.7382 50.5154 42.0567 51.0495 42.5288 51.0495C42.8171 51.0495 43.3447 50.5009 43.3425 50.2036C43.3415 50.0711 42.715 48.5676 41.9503 46.8623C41.1855 45.1571 40.5598 43.7254 40.5598 43.6807C40.5598 43.636 40.7608 43.3312 41.0065 43.0032C41.2523 42.6753 41.6534 42.1321 41.8979 41.7961C42.3378 41.1916 42.3438 41.1879 42.4675 41.4338C42.5363 41.5706 43.7197 44.2104 45.0972 47.3ZM22.4131 42.2258C22.7689 42.7239 23.1651 43.2479 23.2933 43.3902L23.5263 43.6489L22.1287 46.7541C21.3183 48.5543 20.7282 49.9984 20.7243 50.1904C20.7118 50.8087 21.3279 51.1877 21.8798 50.9013C22.1296 50.7716 22.3886 50.2679 23.6055 47.5438L25.0372 44.339H25.4705C25.7089 44.339 26.4188 44.2594 27.0483 44.1621C27.6777 44.0648 28.2132 44.0057 28.2381 44.0309C28.2777 44.0705 23.0833 55.7894 22.9804 55.8928C22.9588 55.9143 22.5778 55.4084 22.1337 54.7686C21.6895 54.1286 21.1509 53.3794 20.9369 53.1036C20.4727 52.5052 20.5301 52.5113 18.1349 52.8073C17.2306 52.9191 16.4749 52.9948 16.4557 52.9756C16.398 52.9177 21.6046 41.3201 21.6885 41.3201C21.7311 41.3201 22.0572 41.7277 22.4131 42.2258Z" fill="#47258F"/>
</svg>
