<svg width="64" height="65" viewBox="0 0 64 65" fill="none" xmlns="http://www.w3.org/2000/svg">
<path fill-rule="evenodd" clip-rule="evenodd" d="M25.1797 4.02238C22.9955 5.7632 23.5316 5.60535 20.3995 5.43051C18.7358 5.33758 18.4288 5.34766 18.1926 5.50223C18.0419 5.60113 17.3391 6.56125 16.631 7.63586L15.3434 9.58984L13.1541 10.193C10.5516 10.91 10.5843 10.8978 10.4141 11.215C10.3402 11.3523 10.0101 12.4532 9.68035 13.6612L9.08082 15.8575L7.13281 17.1358C6.06137 17.8389 5.10336 18.5385 5.00375 18.6905C4.8473 18.9292 4.83734 19.2299 4.93051 20.8995C5.10535 24.0316 5.2632 23.4955 3.52238 25.6797C2.68508 26.7303 2 27.6916 2 27.816C2 27.9404 2.37559 29.0452 2.83461 30.2711L3.66922 32.5L2.83461 34.7289C2.37559 35.9548 2 37.0597 2 37.184C2 37.3084 2.68508 38.2697 3.52238 39.3203C5.2632 41.5045 5.10535 40.9684 4.93051 44.1005C4.83734 45.7701 4.8473 46.0708 5.00375 46.3095C5.10336 46.4615 6.06137 47.1611 7.13281 47.8642L9.08082 49.1425L9.68633 51.3388C10.3977 53.9194 10.396 53.9148 10.7018 54.0786C10.832 54.1482 11.9296 54.4763 13.141 54.8077L15.3434 55.4102L16.631 57.3641C17.3391 58.4388 18.0419 59.3989 18.1926 59.4978C18.4288 59.6523 18.7358 59.6624 20.3995 59.5695C23.5316 59.3946 22.9955 59.2368 25.1797 60.9776C26.2321 61.8164 27.198 62.5 27.3308 62.5C27.4633 62.5 28.5684 62.1245 29.7866 61.6656L32.0013 60.8313L34.2296 61.6656C35.4552 62.1245 36.5597 62.5 36.684 62.5C36.8084 62.5 37.7697 61.8149 38.8203 60.9776C41.0045 59.2368 40.4684 59.3946 43.6005 59.5695C45.2642 59.6624 45.5713 59.6523 45.8074 59.4978C45.9581 59.3989 46.6604 58.4402 47.3679 57.3671L48.6542 55.416L50.8447 54.8181C52.0495 54.4892 53.1477 54.1598 53.285 54.0859C53.6021 53.9158 53.5899 53.9484 54.3092 51.3511L54.9141 49.167L56.8686 47.8704C57.9436 47.1573 58.9029 46.4522 59.0002 46.3035C59.1518 46.0722 59.1618 45.7539 59.0695 44.1005C58.8946 40.9684 58.7368 41.5045 60.4776 39.3203C61.3149 38.2697 62 37.3084 62 37.184C62 37.0597 61.6244 35.9548 61.1654 34.7289L60.3308 32.5L61.1654 30.2711C61.6244 29.0452 62 27.9404 62 27.816C62 27.6916 61.3149 26.7303 60.4776 25.6797C58.7368 23.4955 58.8946 24.0316 59.0695 20.8995C59.1618 19.2461 59.1518 18.9278 59.0002 18.6965C58.9029 18.5478 57.9436 17.8427 56.8686 17.1296L54.9141 15.833L54.3092 13.6489C53.5899 11.0516 53.6021 11.0842 53.285 10.9141C53.1477 10.8402 52.0495 10.5108 50.8447 10.1819L48.6542 9.58398L47.3679 7.63293C46.6604 6.55984 45.9581 5.60113 45.8074 5.50223C45.5713 5.34766 45.2642 5.33758 43.6005 5.43051C40.4584 5.60582 40.9862 5.75781 38.9115 4.08109C37.9139 3.27484 36.9741 2.58238 36.8231 2.54219C36.6356 2.49227 35.8271 2.73848 34.2739 3.31855L31.9993 4.16805L29.7855 3.33402C28.5679 2.87535 27.4633 2.5 27.3308 2.5C27.198 2.5 26.2321 3.18355 25.1797 4.02238ZM30.3301 5.55051L32 6.1709L33.6699 5.55051C34.5883 5.20926 35.5858 4.83402 35.8864 4.71684L36.433 4.50355L38.2803 5.97484L40.1277 7.44613L42.5014 7.36141L44.8752 7.27668L46.0662 9.07773C46.7214 10.0684 47.3319 10.9627 47.4228 11.0651C47.5138 11.1675 48.5327 11.5047 49.6871 11.8142C50.8416 12.1238 51.8492 12.4161 51.9263 12.4636C52.0033 12.5113 52.3374 13.5453 52.6687 14.7614L53.2711 16.9727L55.2471 18.3039L57.223 19.6352L57.1384 22.0037L57.0539 24.3723L58.5252 26.2197L59.9964 28.067L59.7832 28.6136C59.666 28.9142 59.2907 29.9117 58.9495 30.8301L58.3291 32.5L58.9495 34.1699C59.2907 35.0884 59.6668 36.088 59.7852 36.3913L60.0003 36.9427L58.7134 38.5366C56.8632 40.8279 57.0402 40.3227 57.1391 43.0315L57.2243 45.364L55.2477 46.6957L53.2711 48.0273L52.6687 50.2386C52.3374 51.4547 52.0033 52.4887 51.9263 52.5364C51.8492 52.5839 50.8416 52.8762 49.6871 53.1858C48.5327 53.4953 47.5138 53.8325 47.4228 53.9349C47.3319 54.0373 46.7214 54.9316 46.0662 55.9223L44.8752 57.7233L42.5014 57.6386L40.1277 57.5539L38.2803 59.0252L36.433 60.4964L35.8864 60.2832C35.5858 60.166 34.5884 59.7907 33.6699 59.4495L32 58.8291L30.3301 59.4495C29.4117 59.7907 28.4166 60.165 28.119 60.2811L27.5777 60.4922L25.8924 59.1427C24.9655 58.4004 24.1085 57.7395 23.9881 57.6741C23.8455 57.5965 22.9591 57.5846 21.4467 57.6399L19.1243 57.7246L17.8804 55.8443C17.1963 54.8103 16.5732 53.9124 16.496 53.8491C16.4187 53.7858 15.3848 53.468 14.1983 53.1428C13.0119 52.8177 12.0049 52.4931 11.9607 52.4214C11.9164 52.3498 11.6293 51.3582 11.3227 50.2178C11.0162 49.0776 10.7094 48.0761 10.6411 47.9925C10.5727 47.9089 9.6752 47.2868 8.64664 46.6101L6.77645 45.3798L6.86129 43.0037L6.94613 40.6277L5.47484 38.7803L4.00355 36.933L4.21684 36.3864C4.33402 36.0858 4.70926 35.0884 5.05051 34.1699L5.6709 32.5L5.05051 30.8301C4.70926 29.9117 4.33402 28.9142 4.21684 28.6136L4.00355 28.067L5.47484 26.2197L6.94613 24.3723L6.86129 21.9963L6.77645 19.6202L8.64664 18.3899C9.6752 17.7132 10.5727 17.0911 10.6411 17.0075C10.7094 16.9239 11.0162 15.9224 11.3227 14.7822C11.6293 13.6418 11.9164 12.6502 11.9607 12.5786C12.0049 12.5069 13.0119 12.1823 14.1983 11.8572C15.3848 11.532 16.4187 11.2142 16.496 11.1509C16.5732 11.0876 17.1963 10.1897 17.8804 9.15566L19.1243 7.27539L21.4467 7.36012C22.9591 7.41543 23.8455 7.40348 23.9881 7.3259C24.1085 7.26051 24.9655 6.59957 25.8924 5.8573L27.5777 4.50777L28.119 4.71895C28.4166 4.83496 29.4116 5.20926 30.3301 5.55051ZM30.2422 8.54887C22.6393 9.2452 16.2262 12.9877 12.0323 19.1755C6.35246 27.556 6.72336 39.0127 12.9354 47.0669C13.7073 48.0678 13.8823 48.2031 14.4057 48.2031C14.8175 48.2031 15.2422 47.7437 15.2422 47.2983C15.2422 47.1229 14.9037 46.5617 14.3732 45.8575C10.6575 40.9247 9.15793 34.7825 10.1953 28.7441C12.3041 16.4691 24.1925 8.34391 36.3945 10.8382C38.6926 11.3079 40.9559 12.1634 43.0203 13.3425C43.6384 13.6955 44.2617 13.9844 44.4055 13.9844C44.8061 13.9844 45.2422 13.4786 45.2422 13.0141C45.2422 12.5048 45.0127 12.2976 43.543 11.4798C41.2104 10.182 38.2302 9.18402 35.4587 8.77246C34.1834 8.58309 31.2438 8.45711 30.2422 8.54887ZM46.9572 14.8132C46.7254 14.9955 46.6484 15.1616 46.6484 15.4795C46.6484 15.8539 46.7613 16.0158 47.6227 16.8773C48.7368 17.9914 49.0153 18.0809 49.5871 17.509C50.1623 16.9339 50.0067 16.5264 48.764 15.3542C47.8442 14.4865 47.5026 14.3842 46.9572 14.8132ZM36.7735 16.0986C35.3579 16.4499 34.1094 17.86 34.1094 19.1076C34.1094 20.254 31.854 22.2747 29.6221 23.1278C28.3187 23.6262 27.9836 23.8362 26.9609 24.7963L26.082 25.6216L22.1562 25.633C18.2421 25.6445 18.2293 25.6454 17.8479 25.9175C17.0182 26.5093 17.0622 26.0052 17.0254 35.3125C16.996 42.7717 17.013 43.7457 17.1804 44.1862C17.4025 44.7708 17.8934 45.2177 18.4978 45.3855C19.0923 45.5506 24.8913 45.5443 25.4906 45.3778C25.7454 45.3072 26.133 45.0701 26.3519 44.8512L26.75 44.4531H34.6055C40.4786 44.4531 42.5829 44.4168 42.9434 44.3091C43.6811 44.0888 44.589 43.1424 44.821 42.3517C45.054 41.5578 45.0509 41.3774 44.7916 40.627L44.583 40.0236L44.9579 39.7244C45.8034 39.0498 46.1894 37.5298 45.7701 36.5264L45.595 36.1073L46.1206 35.5227C46.6441 34.9403 47.0043 34.0859 46.9961 33.4455C46.994 33.28 46.8917 32.8545 46.7687 32.5L46.5451 31.8555L46.9382 31.4453C47.9225 30.4188 48.2253 28.87 47.6757 27.6743C47.2672 26.7857 46.8587 26.3539 46.0391 25.9443L45.322 25.5859H41.7669H38.2119L38.9259 24.623C40.3277 22.7324 40.9691 21.0375 40.8821 19.4536C40.8247 18.4088 40.5944 17.8204 39.96 17.0978C39.2627 16.3036 37.7979 15.8443 36.7735 16.0986ZM38.3045 18.1588C39.1835 18.7275 39.2669 20.0929 38.519 21.6679C37.9239 22.921 37.1698 23.9419 35.9588 25.1344C35.1351 25.9455 34.9304 26.2144 34.9334 26.4821C34.9377 26.8632 35.1087 27.1277 35.4786 27.3246C35.6607 27.4216 37.0646 27.4611 40.3419 27.4614C44.7048 27.4618 44.9691 27.4739 45.3243 27.6906C46.5939 28.4646 46.0808 30.5078 44.6169 30.5078C43.5864 30.5078 43.1328 30.8279 43.1328 31.5548C43.1328 32.0214 43.4606 32.3384 44.0451 32.4372C44.5893 32.5291 44.9741 32.8879 45.0763 33.3989C45.1346 33.6907 45.0827 33.8327 44.8034 34.1452C44.4802 34.507 44.3979 34.5357 43.4901 34.6023C42.6645 34.663 42.489 34.7139 42.3 34.9473C41.825 35.5339 42.2129 36.3111 43.047 36.4444C43.9937 36.5958 44.382 37.5152 43.79 38.2034C43.5358 38.4989 43.4239 38.5334 42.5888 38.5734C41.4713 38.6267 41.1406 38.8482 41.1406 39.5432C41.1406 40.0457 41.5531 40.4688 42.0431 40.4688C42.4815 40.4688 42.7849 40.6831 42.9685 41.1227C43.1136 41.47 43.1136 41.5769 42.9685 41.9242C42.8764 42.1445 42.6946 42.3818 42.5645 42.4516C42.4019 42.5385 39.9253 42.5781 34.6482 42.5781H26.9686L26.9355 37.8216L26.9023 33.0651L26.6257 32.8411C26.2558 32.5417 25.6109 32.5489 25.3484 32.8553C25.1633 33.0715 25.1391 33.575 25.0859 38.3338L25.0273 43.5742H21.9805H18.9336L18.9035 35.5176L18.8734 27.4609H21.9796H25.0859V28.6546C25.0859 29.7188 25.1136 29.8776 25.3407 30.1195C25.657 30.456 26.2415 30.4776 26.6257 30.1668C26.881 29.9603 26.906 29.8405 26.9493 28.6141L26.9964 27.2852L28.09 26.3138C29.0377 25.4719 29.3465 25.275 30.4055 24.8373C31.9798 24.1868 33.3836 23.247 34.4359 22.1393C35.3887 21.1362 35.7902 20.4304 35.9742 19.435C36.2172 18.1202 37.3152 17.5189 38.3045 18.1588ZM51.043 19.2732C50.4641 19.5967 50.347 20.239 50.7573 20.8398C51.6673 22.1726 52.9802 25.3171 53.4538 27.2989C54.2518 30.6384 54.2227 34.7204 53.3776 37.9729C51.3259 45.8698 45.0952 52.0342 37.2482 53.9309C35.2959 54.4028 34.0312 54.548 31.8828 54.547C28.4628 54.5453 25.5699 53.8961 22.4492 52.4298C21.1869 51.8366 19.2296 50.6143 18.2018 49.777C17.7001 49.3683 17.4709 49.2578 17.1246 49.2578C16.5651 49.2578 16.25 49.5834 16.25 50.1613C16.25 50.6737 16.676 51.0818 18.4784 52.2966C25.8079 57.2364 35.025 57.8276 42.8216 53.8579C49.5941 50.4096 54.1974 44.1733 55.6189 36.5209C55.8744 35.1457 55.977 31.3571 55.7997 29.8492C55.4585 26.9471 54.6746 24.323 53.3723 21.7231C52.2212 19.4253 51.7178 18.8958 51.043 19.2732ZM21.6248 39.6402C21.2012 39.8165 21.0482 40.1276 21.0881 40.7324C21.1112 41.084 21.5381 41.4062 21.9805 41.4062C22.617 41.4062 22.933 41.008 22.8636 40.293C22.8154 39.7961 22.1248 39.4322 21.6248 39.6402Z" fill="#47258F"/>
</svg>
