<svg width="64" height="65" viewBox="0 0 64 65" fill="none" xmlns="http://www.w3.org/2000/svg">
<path fill-rule="evenodd" clip-rule="evenodd" d="M36.0448 3.55745C31.8558 4.05679 28.4711 5.24229 25.2547 7.33665C23.1042 8.73696 20.9585 10.7096 19.4314 12.6905C18.7594 13.5622 18.6281 13.8059 18.6281 14.1827C18.6281 14.71 19.0399 15.1202 19.5692 15.1202C19.9672 15.1202 20.1978 14.9204 20.9266 13.9444C21.7032 12.9043 23.3094 11.2459 24.3751 10.3837C28.758 6.83778 34.1306 5.11719 39.6665 5.48649C49.5583 6.14656 57.7108 13.3527 59.6841 23.1805C60.0537 25.0214 60.133 28.3504 59.8539 30.319C59.3944 33.561 58.2877 36.5158 56.4607 39.3779C55.6468 40.6529 53.4459 43.2324 53.3691 43.0013C53.3455 42.9303 53.4094 42.4687 53.5111 41.9756C53.6128 41.4825 53.6961 40.9352 53.6961 40.7593C53.6961 40.0387 52.6545 39.6534 52.1051 40.1707C51.8939 40.3697 51.7459 40.9283 51.2786 43.2913C50.469 47.3855 50.383 47.294 54.3178 46.5212C55.7498 46.2399 57.0858 45.9434 57.2867 45.8623C57.9874 45.5795 58.043 44.6376 57.3843 44.2051C57.1082 44.0236 56.9832 44.0169 56.2356 44.1431C55.7742 44.2209 55.2647 44.3185 55.1035 44.3598C54.8693 44.4198 54.9755 44.2594 55.6315 43.5631C61.0567 37.8043 63.2469 29.3017 61.3015 21.5525C58.8643 11.8449 50.6982 4.71638 40.7362 3.60048C39.7499 3.48996 36.8351 3.46327 36.0448 3.55745ZM37.8041 7.73746C37.3368 8.006 37.2839 8.20058 37.2801 9.66192C37.2765 10.9964 37.2926 11.097 37.5477 11.3374C37.9197 11.6876 38.5614 11.6798 38.8979 11.3209C39.1294 11.0738 39.1528 10.9234 39.1528 9.68437C39.1528 8.93401 39.12 8.23444 39.08 8.1298C39.0021 7.92652 38.4437 7.59308 38.1911 7.59895C38.1073 7.60095 37.9331 7.66327 37.8041 7.73746ZM28.2808 10.3585C27.8021 10.6947 27.824 11.1511 28.3673 12.1531C29.1398 13.5779 29.3593 13.8269 29.8425 13.8269C30.0692 13.8269 30.3513 13.775 30.4693 13.7118C30.7585 13.5566 30.9602 12.9469 30.8331 12.6119C30.6232 12.0586 29.535 10.3246 29.3538 10.2548C29.0257 10.1287 28.5416 10.1755 28.2808 10.3585ZM46.9819 10.329C46.6243 10.604 45.6035 12.5331 45.6035 12.9339C45.6035 13.7302 46.6795 14.1522 47.2062 13.5623C47.6217 13.0969 48.5356 11.3794 48.5356 11.064C48.5356 10.3962 47.5195 9.91552 46.9819 10.329ZM9.77319 10.4572C9.51517 10.5428 9.11934 10.7082 8.89356 10.8248C8.34127 11.1102 4.07823 15.3456 3.4225 16.2605C-0.382196 21.5687 3.63959 32.9399 13.1645 43.8055C20.4802 52.1511 29.6241 58.6338 37.1004 60.7754C39.1673 61.3675 40.0424 61.4963 42.0263 61.4999C44.157 61.5038 44.8505 61.3684 46.3072 60.6641C47.1045 60.2787 47.435 59.9898 49.8364 57.579C52.9688 54.4345 53.0435 54.3193 53.0481 52.6265C53.0507 51.6598 53.0096 51.4225 52.7431 50.8628C52.5739 50.5072 52.222 50.0045 51.9613 49.7459C51.434 49.2227 40.7242 43.1144 39.9001 42.867C39.6288 42.7855 39.0234 42.7429 38.4963 42.7682C37.0523 42.8374 36.7361 43.0428 34.1683 45.5783C32.9427 46.7885 31.771 47.8642 31.5646 47.9687C31.0701 48.2189 30.2719 48.2099 29.7602 47.9483C29.2282 47.6764 26.8473 45.774 25.1001 44.2247C21.7548 41.2582 16.3853 35.3417 15.5528 33.7048C15.2966 33.2009 15.2855 32.5367 15.524 31.9646C15.6345 31.6997 16.5568 30.669 17.914 29.2936C19.1296 28.0619 20.2314 26.8407 20.3624 26.5799C20.8303 25.649 20.9111 24.2633 20.5543 23.2916C20.5068 23.1623 19.0644 20.5499 17.3489 17.4864C15.2621 13.7596 14.0747 11.7596 13.7609 11.4425C13.0766 10.7511 12.198 10.3832 11.1243 10.3383C10.6054 10.3167 10.0492 10.3656 9.77319 10.4572ZM11.9432 12.4784C12.1047 12.5601 12.3278 12.728 12.4392 12.8514C12.7094 13.1506 18.5654 23.5886 18.7322 24.0681C19.0697 25.039 18.7678 25.7474 17.4622 27.0478C16.9462 27.5616 16.5039 27.9584 16.4793 27.9296C16.4545 27.9007 15.4181 25.9988 14.176 23.7031C12.9339 21.4075 11.8119 19.4367 11.6827 19.3235C11.368 19.0478 10.8703 19.0636 10.4927 19.3615C9.89294 19.8343 9.97527 20.0499 12.588 24.85C13.9104 27.2794 14.9923 29.3187 14.9923 29.382C14.9923 29.4451 14.785 29.7222 14.5315 29.998C13.3613 31.2707 13.0882 32.9885 13.8066 34.5591C14.0597 35.1123 15.4723 36.9518 17.2529 39.0466C20.5057 42.8736 27.0919 48.8592 29.0664 49.7829C29.5861 50.0261 29.8939 50.0854 30.6498 50.0887C31.7552 50.0935 32.5676 49.778 33.5178 48.9748L34.0963 48.4858L35.3383 49.1538C36.676 49.8731 37.0292 49.9206 37.4635 49.4395C37.7119 49.1644 37.7422 48.4968 37.5185 48.2266C37.4324 48.1226 36.9485 47.8106 36.4432 47.5334L35.5247 47.0292L36.547 46.0115C37.9766 44.5885 38.5602 44.3832 39.6806 44.9089C41.0859 45.5683 50.3835 50.9034 50.6703 51.215C51.4796 52.0943 51.3077 53.4797 50.2645 54.4838L49.8617 54.8714L45.3398 52.3968C42.8527 51.0358 40.6924 49.9222 40.5391 49.9222C39.8562 49.9222 39.3977 50.621 39.6676 51.2506C39.8098 51.5822 40.3436 51.907 44.1409 53.9727L48.4529 56.3184L47.2791 57.4539C45.4044 59.2674 44.4006 59.6315 41.5572 59.5293C39.5844 59.4584 38.3819 59.2093 36.1621 58.4121C25.4961 54.5809 12.8158 42.8889 6.99907 31.5218C4.90051 27.421 3.96529 24.2857 3.96939 21.3656C3.97268 18.9815 4.43325 17.8797 6.13786 16.1779C6.74633 15.5705 7.26378 15.0973 7.28783 15.1262C7.31199 15.1552 7.55488 15.5892 7.8278 16.0905C8.10072 16.592 8.42232 17.0549 8.54241 17.1193C9.1625 17.452 9.94912 16.9869 9.94912 16.2875C9.94912 16.059 9.70529 15.4697 9.31649 14.759L8.68374 13.6023L9.30371 13.0147C9.64465 12.6913 10.0745 12.3934 10.2589 12.3524C10.4432 12.3113 10.647 12.2603 10.7115 12.2389C10.9001 12.1762 11.6246 12.3171 11.9432 12.4784ZM21.379 17.29C21.0524 17.6174 21.0031 18.1165 21.261 18.4856C21.5268 18.866 23.4699 19.9407 23.8917 19.9407C24.5675 19.9407 25.0123 19.1897 24.6954 18.5836C24.4855 18.1821 22.4735 17.0014 21.9991 17.0014C21.8028 17.0014 21.5491 17.1194 21.379 17.29ZM52.964 17.6694C52.1104 18.1713 51.7985 18.421 51.7108 18.6732C51.4917 19.3034 51.9177 19.9298 52.5704 19.937C52.9178 19.9409 54.5853 19.0585 55.0742 18.6122C55.6426 18.0933 55.2068 17.0014 54.4312 17.0014C54.2403 17.0014 53.6196 17.2839 52.964 17.6694ZM30.3093 19.3521C28.394 19.9652 26.9545 21.7945 26.9114 23.6697C26.8984 24.2353 26.9354 24.344 27.2258 24.5947C27.4067 24.751 27.6879 24.8789 27.8505 24.8789C28.2575 24.8789 28.8316 24.2827 28.8326 23.8592C28.8338 23.1514 29.0868 22.6091 29.7047 21.9898C31.0309 20.6602 32.9661 20.6602 34.2924 21.9898C35.157 22.8565 35.3888 23.8609 34.9877 25.0008C34.6055 26.0868 33.791 26.7663 30.9641 28.3572C28.0971 29.9706 26.9806 31.3197 26.9182 33.2459C26.9001 33.8061 26.9418 33.9602 27.181 34.2159L27.4654 34.52H31.9445C36.2342 34.52 36.4362 34.5101 36.7196 34.2867C36.8822 34.1584 37.0488 33.9199 37.0897 33.7566C37.1752 33.415 36.9119 32.8219 36.626 32.7118C36.5216 32.6717 34.7779 32.6388 32.7512 32.6388C28.4703 32.6388 28.5897 32.6841 29.8122 31.5241C30.2897 31.0711 31.081 30.523 32.0113 30.0012C34.058 28.8534 35.0286 28.1775 35.721 27.4179C38.7684 24.0754 36.5075 19.094 31.9569 19.1241C31.3601 19.128 30.7417 19.2136 30.3093 19.3521ZM40.7809 19.2361C40.6765 19.2973 40.5341 19.4941 40.4645 19.6734C40.2878 20.1291 38.3319 29.0447 38.3319 29.3944C38.3319 30.3515 38.5453 30.4049 42.3723 30.4049H45.6035V32.2187V34.0326L45.9125 34.2763C46.3307 34.6062 46.836 34.5884 47.1921 34.2313C47.472 33.9508 47.48 33.8944 47.48 32.1875V30.4323L48.2582 30.3827C48.9295 30.3397 49.0744 30.2886 49.3137 30.0096C49.6869 29.5747 49.6658 29.1683 49.2483 28.7498C48.9447 28.4454 48.8241 28.4061 48.1927 28.4061H47.48V24.0717C47.48 19.8648 47.4729 19.7282 47.2369 19.4275C46.9122 19.0137 46.2285 18.995 45.8584 19.3898C45.606 19.6592 45.6035 19.7069 45.6035 24.034V28.4061H43.0416H40.4798L41.3997 24.2675C41.9056 21.9911 42.3195 20.0312 42.3195 19.9118C42.3195 19.5513 41.7913 19.1173 41.3572 19.1213C41.1447 19.1233 40.8854 19.1749 40.7809 19.2361ZM54.4491 26.4566C53.7552 26.7595 53.6741 27.66 54.3011 28.1003C54.6865 28.3708 57.0451 28.3708 57.4305 28.1003C58.0563 27.6608 57.9624 26.7473 57.2611 26.4534C56.7565 26.242 54.936 26.2442 54.4491 26.4566ZM23.5541 34.7187C23.0531 34.9106 21.227 36.0651 21.1641 36.2299C21.0302 36.5793 21.0888 36.9544 21.3238 37.2539C21.7376 37.7813 22.0556 37.7632 23.182 37.1485C24.3624 36.5043 24.8442 36.0707 24.8442 35.6526C24.8442 35.0847 24.0671 34.5221 23.5541 34.7187ZM52.1714 34.7897C51.7656 34.9955 51.54 35.5015 51.674 35.9056C51.7935 36.2666 52.3223 36.6594 53.5249 37.2807C54.2481 37.6544 54.3925 37.6914 54.6882 37.5788C55.1198 37.4143 55.3296 37.1343 55.3343 36.7167C55.3405 36.1719 55.1641 35.9905 53.956 35.2987C52.7179 34.5898 52.6205 34.562 52.1714 34.7897ZM29.4639 40.8876C29.1625 41.0341 27.8936 43.1963 27.8936 43.5633C27.8936 43.9336 28.5062 44.5138 28.8969 44.5138C29.3382 44.5138 29.8379 43.9436 30.452 42.7394C30.8819 41.8967 30.9404 41.7005 30.8407 41.4375C30.6193 40.8537 30.0235 40.6157 29.4639 40.8876ZM45.8914 41.0401C45.4515 41.481 45.5169 41.9239 46.1982 43.1176C46.9726 44.4741 47.2936 44.701 47.9894 44.3833C48.2812 44.25 48.5356 43.8326 48.5356 43.487C48.5356 43.1127 47.2685 41.0349 46.9521 40.8904C46.4938 40.681 46.2095 40.7211 45.8914 41.0401Z" fill="#47258F"/>
</svg>
