<svg width="24" height="24" viewBox="0 0 24 24" fill="none" xmlns="http://www.w3.org/2000/svg">
<path d="M15 17H9C7.94796 17 7.41882 16.8813 7.19257 16.8074C7.11872 16.5812 7 16.052 7 15V9C7 7.94796 7.11872 7.41882 7.19257 7.19257C7.41882 7.11872 7.94796 7 9 7H15C16.052 7 16.5812 7.11872 16.8074 7.19257C16.8813 7.41882 17 7.94796 17 9V15C17 16.052 16.8813 16.5812 16.8074 16.8074C16.5812 16.8813 16.052 17 15 17ZM7.05108 16.7499C7.05121 16.7498 7.05428 16.7514 7.05993 16.755C7.05378 16.7518 7.05096 16.75 7.05108 16.7499ZM7.24501 16.9401C7.2486 16.9457 7.25022 16.9488 7.25012 16.9489C7.25003 16.949 7.24823 16.9462 7.24501 16.9401ZM7.25012 7.05108C7.25022 7.05121 7.2486 7.05428 7.24501 7.05992C7.24823 7.05378 7.25003 7.05095 7.25012 7.05108ZM7.05992 7.24501C7.05428 7.24861 7.05121 7.25022 7.05108 7.25012C7.05095 7.25003 7.05378 7.24823 7.05992 7.24501ZM16.9489 7.25012C16.9488 7.25022 16.9457 7.2486 16.9401 7.24501C16.9462 7.24823 16.949 7.25003 16.9489 7.25012ZM16.755 7.05992C16.7514 7.05428 16.7498 7.05121 16.7499 7.05108C16.75 7.05096 16.7518 7.05378 16.755 7.05992ZM16.7499 16.9489C16.7498 16.9488 16.7514 16.9457 16.755 16.9401C16.7518 16.9462 16.75 16.949 16.7499 16.9489ZM16.9401 16.755C16.9457 16.7514 16.9488 16.7498 16.9489 16.7499C16.949 16.75 16.9462 16.7518 16.9401 16.755Z" stroke="white" stroke-width="10" stroke-linecap="round" stroke-linejoin="round"/>
<path d="M8.67188 14.3298C8.67188 15.6198 9.66188 16.6598 10.8919 16.6598H13.4019C14.4719 16.6598 15.3419 15.7498 15.3419 14.6298C15.3419 13.4098 14.8119 12.9798 14.0219 12.6998L9.99187 11.2998C9.20187 11.0198 8.67188 10.5898 8.67188 9.36984C8.67188 8.24984 9.54187 7.33984 10.6119 7.33984H13.1219C14.3519 7.33984 15.3419 8.37984 15.3419 9.66984" stroke="#47258F" stroke-width="1.5" stroke-linecap="round" stroke-linejoin="round"/>
<path d="M12 6V18" stroke="#47258F" stroke-width="1.5" stroke-linecap="round" stroke-linejoin="round"/>
</svg>
