<svg width="24" height="24" viewBox="0 0 24 24" fill="none" xmlns="http://www.w3.org/2000/svg">
<path d="M12 15.9299C15.1038 15.9299 17.62 13.4138 17.62 10.3099C17.62 7.2061 15.1038 4.68994 12 4.68994C8.89616 4.68994 6.38 7.2061 6.38 10.3099C6.38 13.4138 8.89616 15.9299 12 15.9299Z" stroke="white" stroke-width="5"/>
<path d="M18.4294 8.94149L18.4294 8.94158C19.3318 12.9278 16.8833 16.5349 14.2147 19.0974L14.2111 19.101C12.9783 20.2908 11.0244 20.296 9.77644 19.0985C7.11794 16.5359 4.6685 12.9195 5.5704 8.93273C6.31056 5.68094 9.05562 3.99801 12.0024 4C14.9497 4.00199 17.6933 5.68922 18.4294 8.94149Z" stroke="white" stroke-width="4"/>
</svg>
