<svg width="24" height="24" viewBox="0 0 24 24" fill="none" xmlns="http://www.w3.org/2000/svg">
<path d="M6.9 20.6C8.4 21.5 10.2 22 12 22C17.5 22 22 17.5 22 12C22 6.5 17.5 2 12 2C6.5 2 2 6.5 2 12C2 13.8 2.5 15.5 3.3 17L2.44044 20.306C2.24572 21.0549 2.93892 21.7317 3.68299 21.5191L6.9 20.6Z" stroke="white" stroke-width="1.5" stroke-miterlimit="10" stroke-linecap="round" stroke-linejoin="round"/>
<path d="M14.963 15.4035L14.963 15.4035L14.9576 15.4057C14.8136 15.4656 14.6517 15.5 14.4629 15.5C14.1611 15.5 13.8032 15.4291 13.3852 15.2513C12.9438 15.0635 12.4911 14.8058 12.0322 14.4722C11.5565 14.1253 11.1046 13.7405 10.6718 13.3129C10.2439 12.8811 9.85943 12.4308 9.51754 11.9622C9.18441 11.4994 8.92733 11.052 8.7453 10.6245C8.57162 10.2122 8.5 9.85438 8.5 9.543C8.5 9.3557 8.53287 9.1903 8.59053 9.04637L8.59054 9.04638L8.59262 9.0411C8.64349 8.912 8.72772 8.78135 8.8662 8.65091L8.87393 8.64362L8.8815 8.63618C8.95137 8.5675 9.0049 8.53346 9.04391 8.51658L9.99345 9.85293L9.66854 10.1902C9.42222 10.4411 9.31222 10.7574 9.31222 11.0685C9.31222 11.1994 9.33021 11.3131 9.35568 11.4149L9.36953 11.4702L9.38958 11.5236C9.39778 11.5454 9.40538 11.5643 9.4115 11.5791L9.42075 11.6011L9.44147 11.6632L9.4842 11.7414C9.61266 11.9766 9.80201 12.2296 10.018 12.4845L10.018 12.4845L10.0252 12.4929C10.2382 12.7387 10.4689 12.9932 10.7211 13.2499L10.7277 13.2566L10.7345 13.2632C10.9859 13.5096 11.2394 13.7487 11.5043 13.9733L11.5056 13.9744C11.7696 14.1974 12.0245 14.3815 12.265 14.5086L12.312 14.5334L12.3506 14.5489C12.3514 14.5492 12.3523 14.5496 12.3534 14.5501L12.3566 14.5516C12.3685 14.557 12.3932 14.5684 12.4201 14.5799L12.4412 14.5889L12.4628 14.597C12.6448 14.6652 12.8083 14.6785 12.9261 14.6785C13.28 14.6785 13.5877 14.5376 13.8144 14.3128L14.1416 13.9903L15.4725 14.9337C15.4376 15.0027 15.3953 15.0654 15.3404 15.1259C15.2079 15.2716 15.0845 15.3538 14.963 15.4035Z" stroke="white" stroke-width="2" stroke-miterlimit="10"/>
</svg>
